<svg width="467" height="449" viewBox="0 0 467 449" fill="none" xmlns="http://www.w3.org/2000/svg">
<g opacity="0.2">
<circle cx="356.37" cy="323.355" r="1.36997" fill="#599BDA" fill-opacity="0.2"/>
<circle cx="365.046" cy="257.139" r="1.36997" fill="#599BDA" fill-opacity="0.2"/>
<circle cx="364.59" cy="331.118" r="1.36997" fill="#98CDFF"/>
<circle cx="380.573" cy="332.944" r="1.36997" fill="#98CDFF"/>
<circle cx="376.006" cy="308.285" r="1.36997" fill="#98CDFF"/>
<circle cx="378.746" cy="266.272" r="1.36997" fill="#98CDFF" fill-opacity="0.5"/>
<circle cx="383.313" cy="291.389" r="1.36997" fill="#599BDA" fill-opacity="0.2"/>
<circle cx="361.85" cy="286.365" r="1.36997" fill="#98CDFF" fill-opacity="0.5"/>
<circle cx="364.818" cy="297.097" r="2.51161" fill="#98CDFF"/>
<circle cx="376.235" cy="283.854" r="2.51161" fill="#98CDFF" fill-opacity="0.5"/>
<circle cx="371.211" cy="319.473" r="2.51161" fill="#98CDFF"/>
<circle cx="361.85" cy="311.025" r="1.36997" fill="#98CDFF" fill-opacity="0.5"/>
<circle cx="373.495" cy="252.344" r="2.51161" fill="#98CDFF"/>
<circle cx="361.165" cy="272.437" r="2.51161" fill="#98CDFF" fill-opacity="0.5"/>
</g>
<rect x="355" y="239.35" width="110.998" height="119.631" fill="url(#paint0_linear_430_130)"/>
<path d="M464.061 389.484C468.142 388.01 466.463 386.601 463.58 384.199L459.257 382.757L410.732 398.132L360.765 381.796L358.363 383.718C353.767 387.322 354.104 387.762 358.392 389.48L402.564 405.819C406.634 407.216 414.375 407.696 418.419 406.299L464.061 389.484Z" fill="url(#paint1_linear_430_130)"/>
<path d="M466.474 366.288L466.436 381.823C466.432 382.739 465.425 383.653 463.414 384.351L418.245 400.039C414.196 401.445 407.611 401.446 403.536 400.039L358.071 384.352C356.02 383.644 354.996 382.716 355 381.788L355.038 366.258C355.038 367.183 403.572 384.504 403.572 384.504C407.649 385.91 414.234 385.91 418.283 384.503C418.283 384.503 466.471 367.203 466.474 366.288Z" fill="#364E8C"/>
<path d="M464.541 369.193C467.539 367.305 467.155 365.504 463.342 363.389L461.178 362.467L412.173 377.841L359.334 362.467L358.018 363.389C354.253 365.874 353.944 367.821 358.018 369.193L403.044 386.009C407.119 387.381 414.923 387.374 419.38 385.528L464.541 369.193Z" fill="url(#paint2_linear_430_130)"/>
<path d="M466.474 346.206L466.436 361.558C466.432 362.463 465.425 363.366 463.414 364.056L418.245 379.56C414.196 380.949 407.611 380.95 403.536 379.56L358.071 364.057C356.02 363.358 354.996 362.44 355 361.523L355.038 346.177C355.038 347.09 403.572 364.208 403.572 364.208C407.649 365.597 414.234 365.597 418.283 364.207C418.283 364.207 466.471 347.11 466.474 346.206Z" fill="#364E8C"/>
<path d="M466.474 387.351L466.436 402.703C466.432 403.608 465.425 404.511 463.414 405.201L418.245 420.705C414.196 422.094 407.611 422.095 403.536 420.705L358.071 405.202C356.02 404.503 354.996 403.585 355 402.668L355.038 387.322C355.038 388.235 403.572 405.353 403.572 405.353C407.649 406.742 414.234 406.742 418.283 405.352C418.283 405.352 466.471 388.255 466.474 387.351Z" fill="#364E8C"/>
<path d="M463.368 343.242C467.457 344.613 467.431 348.124 463.368 349.495L419.87 365.35C415.808 366.721 407.144 366.721 403.055 365.35L380.729 357.016L358.854 349.495C354.765 348.124 353.611 344.613 357.674 343.242L402.994 327.943C407.056 326.571 413.663 326.571 417.751 327.943L463.368 343.242Z" fill="url(#paint3_linear_430_130)"/>
<path d="M466.474 346.647L466.436 361.999C466.432 362.905 465.425 363.808 463.414 364.498L418.283 379.638C416.157 380.368 413.293 380.6 410.499 380.563V366.38C413.306 366.42 416.996 366.189 419.132 365.455C419.132 365.455 462.606 350.964 466.474 346.647Z" fill="#2F4479"/>
<path d="M466.474 367.614V381.797C466.471 382.702 464.925 383.882 462.914 384.571L418.207 399.988C416.081 400.717 413.293 401.136 410.499 401.099V387.038C413.306 387.078 416.147 386.348 418.283 385.615C418.283 385.615 466.471 368.518 466.474 367.614Z" fill="#2F4479"/>
<path d="M466.474 387.346L466.436 402.699C466.432 403.604 465.425 404.507 463.414 405.197L418.245 420.701C416.119 421.43 413.293 421.777 410.499 421.741V406.387C413.306 406.428 416.147 406.081 418.283 405.348C418.283 405.348 466.471 388.251 466.474 387.346Z" fill="#2F4479"/>
<circle cx="408.032" cy="328.764" r="1.84996" fill="#98CDFF"/>
<circle cx="429.615" cy="331.231" r="1.84996" fill="#98CDFF"/>
<g opacity="0.2">
<circle cx="437.768" cy="323.355" r="1.36997" fill="#599BDA" fill-opacity="0.2"/>
<circle cx="446.445" cy="257.139" r="1.36997" fill="#599BDA" fill-opacity="0.2"/>
<circle cx="445.988" cy="331.118" r="1.36997" fill="#98CDFF"/>
<circle cx="461.971" cy="332.944" r="1.36997" fill="#98CDFF"/>
<circle cx="457.404" cy="308.285" r="1.36997" fill="#98CDFF"/>
<circle cx="460.144" cy="266.272" r="1.36997" fill="#98CDFF" fill-opacity="0.5"/>
<circle cx="464.711" cy="291.389" r="1.36997" fill="#599BDA" fill-opacity="0.2"/>
<circle cx="443.248" cy="286.365" r="1.36997" fill="#98CDFF" fill-opacity="0.5"/>
<circle cx="446.216" cy="297.097" r="2.51161" fill="#98CDFF"/>
<circle cx="457.633" cy="283.854" r="2.51161" fill="#98CDFF" fill-opacity="0.5"/>
<circle cx="452.61" cy="319.473" r="2.51161" fill="#98CDFF"/>
<circle cx="443.248" cy="311.025" r="1.36997" fill="#98CDFF" fill-opacity="0.5"/>
<circle cx="454.893" cy="252.344" r="2.51161" fill="#98CDFF"/>
<circle cx="442.563" cy="272.437" r="2.51161" fill="#98CDFF" fill-opacity="0.5"/>
</g>
<circle cx="393.849" cy="318.281" r="1.84996" fill="#599BDA" fill-opacity="0.2"/>
<circle cx="405.566" cy="228.867" r="1.84996" fill="#599BDA" fill-opacity="0.2"/>
<circle cx="420.365" cy="297.932" r="1.84996" fill="#98CDFF"/>
<circle cx="424.065" cy="241.2" r="1.84996" fill="#98CDFF" fill-opacity="0.5"/>
<circle cx="430.232" cy="275.116" r="1.84996" fill="#599BDA" fill-opacity="0.2"/>
<circle cx="401.249" cy="268.332" r="1.84996" fill="#98CDFF" fill-opacity="0.5"/>
<circle cx="405.257" cy="282.824" r="3.39159" fill="#98CDFF"/>
<circle cx="420.674" cy="264.941" r="3.39159" fill="#98CDFF" fill-opacity="0.5"/>
<circle cx="413.89" cy="313.04" r="3.39159" fill="#98CDFF"/>
<circle cx="401.249" cy="301.631" r="1.84996" fill="#98CDFF" fill-opacity="0.5"/>
<circle cx="416.974" cy="222.392" r="3.39159" fill="#98CDFF"/>
<circle cx="400.324" cy="249.524" r="3.39159" fill="#98CDFF" fill-opacity="0.5"/>
<g filter="url(#filter0_d_430_130)">
<path d="M436.735 404.499C436.513 404.572 436.334 404.747 436.335 404.891L436.343 408.295C436.344 408.439 436.524 408.497 436.746 408.425C436.967 408.352 437.146 408.177 437.145 408.033L437.137 404.629C437.137 404.485 436.957 404.427 436.735 404.499Z" fill="#FFC759"/>
</g>
<g filter="url(#filter1_d_430_130)">
<path d="M434.274 405.308C434.053 405.38 433.874 405.555 433.875 405.699L433.883 409.103C433.883 409.247 434.064 409.305 434.285 409.233C434.507 409.161 434.686 408.985 434.685 408.841L434.677 405.437C434.676 405.293 434.496 405.235 434.274 405.308Z" fill="#FFC759"/>
</g>
<g filter="url(#filter2_d_430_130)">
<path d="M431.814 406.116C431.593 406.188 431.414 406.363 431.414 406.507L431.422 409.911C431.423 410.055 431.603 410.113 431.825 410.041C432.046 409.969 432.225 409.793 432.225 409.65L432.217 406.245C432.216 406.102 432.036 406.044 431.814 406.116Z" fill="#FFC759"/>
</g>
<g filter="url(#filter3_d_430_130)">
<path d="M429.354 406.924C429.132 406.996 428.953 407.171 428.954 407.315L428.962 410.719C428.963 410.863 429.143 410.921 429.364 410.849C429.586 410.777 429.765 410.602 429.764 410.458L429.756 407.054C429.756 406.91 429.575 406.852 429.354 406.924Z" fill="#FFC759"/>
</g>
<g filter="url(#filter4_d_430_130)">
<path d="M426.893 407.732C426.672 407.805 426.493 407.98 426.494 408.124L426.502 411.528C426.502 411.672 426.682 411.73 426.904 411.657C427.125 411.585 427.305 411.41 427.304 411.266L427.296 407.862C427.295 407.718 427.115 407.66 426.893 407.732Z" fill="#FFC759"/>
</g>
<g filter="url(#filter5_d_430_130)">
<path d="M424.433 408.541C424.212 408.613 424.033 408.788 424.033 408.932L424.041 412.336C424.042 412.48 424.222 412.538 424.444 412.466C424.665 412.393 424.844 412.218 424.844 412.074L424.836 408.67C424.835 408.526 424.655 408.468 424.433 408.541Z" fill="#FFC759"/>
</g>
<g filter="url(#filter6_d_430_130)">
<path d="M421.973 409.349C421.751 409.421 421.572 409.596 421.573 409.74L421.581 413.144C421.581 413.288 421.762 413.346 421.983 413.274C422.205 413.202 422.384 413.026 422.383 412.882L422.375 409.478C422.374 409.334 422.194 409.276 421.973 409.349Z" fill="#FFC759"/>
</g>
<g filter="url(#filter7_d_430_130)">
<path d="M436.735 385.21C436.513 385.282 436.334 385.457 436.335 385.601L436.343 389.005C436.344 389.149 436.524 389.207 436.746 389.135C436.967 389.062 437.146 388.887 437.145 388.743L437.137 385.339C437.137 385.195 436.957 385.137 436.735 385.21Z" fill="#FFC759"/>
</g>
<g filter="url(#filter8_d_430_130)">
<path d="M434.274 386.018C434.053 386.09 433.874 386.265 433.875 386.409L433.883 389.813C433.883 389.957 434.064 390.015 434.285 389.943C434.507 389.871 434.686 389.696 434.685 389.552L434.677 386.148C434.676 386.004 434.496 385.946 434.274 386.018Z" fill="#FFC759"/>
</g>
<g filter="url(#filter9_d_430_130)">
<path d="M431.814 386.826C431.593 386.898 431.414 387.074 431.414 387.217L431.422 390.622C431.423 390.765 431.603 390.823 431.825 390.751C432.046 390.679 432.225 390.504 432.225 390.36L432.217 386.956C432.216 386.812 432.036 386.754 431.814 386.826Z" fill="#FFC759"/>
</g>
<g filter="url(#filter10_d_430_130)">
<path d="M429.354 387.634C429.132 387.706 428.953 387.882 428.954 388.026L428.962 391.43C428.963 391.574 429.143 391.632 429.364 391.559C429.586 391.487 429.765 391.312 429.764 391.168L429.756 387.764C429.756 387.62 429.575 387.562 429.354 387.634Z" fill="#FFC759"/>
</g>
<g filter="url(#filter11_d_430_130)">
<path d="M426.893 388.442C426.672 388.515 426.493 388.69 426.494 388.834L426.502 392.238C426.502 392.382 426.682 392.44 426.904 392.368C427.125 392.295 427.305 392.12 427.304 391.976L427.296 388.572C427.295 388.428 427.115 388.37 426.893 388.442Z" fill="#FFC759"/>
</g>
<g filter="url(#filter12_d_430_130)">
<path d="M424.433 389.251C424.212 389.323 424.033 389.498 424.033 389.642L424.041 393.046C424.042 393.19 424.222 393.248 424.444 393.176C424.665 393.104 424.844 392.928 424.844 392.785L424.836 389.38C424.835 389.237 424.655 389.179 424.433 389.251Z" fill="#FFC759"/>
</g>
<g filter="url(#filter13_d_430_130)">
<path d="M421.973 390.059C421.751 390.131 421.572 390.306 421.573 390.45L421.581 393.854C421.581 393.998 421.762 394.056 421.983 393.984C422.205 393.912 422.384 393.737 422.383 393.593L422.375 390.189C422.374 390.045 422.194 389.987 421.973 390.059Z" fill="#FFC759"/>
</g>
<g filter="url(#filter14_d_430_130)">
<path d="M436.735 365.178C436.513 365.25 436.334 365.425 436.335 365.569L436.343 368.973C436.344 369.117 436.524 369.175 436.746 369.103C436.967 369.031 437.146 368.855 437.145 368.712L437.137 365.307C437.137 365.164 436.957 365.106 436.735 365.178Z" fill="#FFC759"/>
</g>
<g filter="url(#filter15_d_430_130)">
<path d="M434.274 365.986C434.053 366.058 433.874 366.234 433.875 366.378L433.883 369.782C433.883 369.926 434.064 369.984 434.285 369.911C434.507 369.839 434.686 369.664 434.685 369.52L434.677 366.116C434.676 365.972 434.496 365.914 434.274 365.986Z" fill="#FFC759"/>
</g>
<g filter="url(#filter16_d_430_130)">
<path d="M431.814 366.794C431.593 366.867 431.414 367.042 431.414 367.186L431.422 370.59C431.423 370.734 431.603 370.792 431.825 370.719C432.046 370.647 432.225 370.472 432.225 370.328L432.217 366.924C432.216 366.78 432.036 366.722 431.814 366.794Z" fill="#FFC759"/>
</g>
<g filter="url(#filter17_d_430_130)">
<path d="M429.354 367.603C429.132 367.675 428.953 367.85 428.954 367.994L428.962 371.398C428.963 371.542 429.143 371.6 429.364 371.528C429.586 371.456 429.765 371.28 429.764 371.136L429.756 367.732C429.756 367.588 429.575 367.53 429.354 367.603Z" fill="#FFC759"/>
</g>
<g filter="url(#filter18_d_430_130)">
<path d="M426.893 368.411C426.672 368.483 426.493 368.658 426.494 368.802L426.502 372.206C426.502 372.35 426.682 372.408 426.904 372.336C427.125 372.264 427.305 372.088 427.304 371.944L427.296 368.54C427.295 368.396 427.115 368.338 426.893 368.411Z" fill="#FFC759"/>
</g>
<g filter="url(#filter19_d_430_130)">
<path d="M424.433 369.219C424.212 369.291 424.033 369.467 424.033 369.611L424.041 373.015C424.042 373.158 424.222 373.217 424.444 373.144C424.665 373.072 424.844 372.897 424.844 372.753L424.836 369.349C424.835 369.205 424.655 369.147 424.433 369.219Z" fill="#FFC759"/>
</g>
<g filter="url(#filter20_d_430_130)">
<path d="M421.973 370.027C421.751 370.099 421.572 370.275 421.573 370.419L421.581 373.823C421.581 373.967 421.762 374.025 421.983 373.952C422.205 373.88 422.384 373.705 422.383 373.561L422.375 370.157C422.374 370.013 422.194 369.955 421.973 370.027Z" fill="#FFC759"/>
</g>
<g filter="url(#filter21_d_430_130)">
<path d="M419.512 410.157C419.291 410.229 419.112 410.405 419.112 410.549L419.12 413.953C419.121 414.096 419.301 414.155 419.523 414.082C419.744 414.01 419.923 413.835 419.923 413.691L419.915 410.287C419.914 410.143 419.734 410.085 419.512 410.157Z" fill="#FFC759"/>
</g>
<g filter="url(#filter22_d_430_130)">
<path d="M419.512 390.867C419.291 390.939 419.112 391.115 419.112 391.258L419.12 394.663C419.121 394.806 419.301 394.864 419.523 394.792C419.744 394.72 419.923 394.545 419.923 394.401L419.915 390.997C419.914 390.853 419.734 390.795 419.512 390.867Z" fill="#FFC759"/>
</g>
<g filter="url(#filter23_d_430_130)">
<path d="M419.512 370.835C419.291 370.908 419.112 371.083 419.112 371.227L419.12 374.631C419.121 374.775 419.301 374.833 419.523 374.76C419.744 374.688 419.923 374.513 419.923 374.369L419.915 370.965C419.914 370.821 419.734 370.763 419.512 370.835Z" fill="#FFC759"/>
</g>
<g clip-path="url(#clip0_430_130)">
<path d="M78.9457 103.498C80.7759 101.693 82.6263 100.01 84.4565 98.2057C84.5582 98.0637 84.7818 97.9016 84.9037 97.8814C89.4278 101.015 94.4404 103.317 100.023 104.523C100.043 104.645 100.043 104.645 100.063 104.767C100.019 107.528 99.9945 110.412 99.8281 113.194C99.8482 113.316 99.8684 113.438 99.8885 113.56C102.609 114.112 105.391 114.278 108.173 114.444C111.056 114.469 113.798 114.392 116.479 113.949L116.459 113.827C116.523 111.187 116.568 108.425 116.633 105.785C116.572 105.42 116.654 105.156 116.735 104.892C122.2 103.864 127.381 101.881 131.913 99.0041C132.197 99.2075 132.501 99.5329 132.948 99.96C134.752 101.79 136.557 103.62 138.24 105.471C142.854 102.33 146.962 98.3959 150.238 93.9736C148.291 92.0416 146.466 90.0895 144.519 88.1576C144.235 87.9541 144.053 87.6086 144.013 87.3649C147.045 82.9828 149.326 77.8483 150.552 72.3874C150.674 72.3673 150.918 72.327 151.162 72.2868C152.563 72.4309 154.045 72.3112 155.568 72.4352C156.949 72.4574 158.33 72.4797 159.589 72.5221C160.019 69.8218 160.328 67.1417 160.372 64.38C160.417 61.6183 160.217 58.8969 159.896 56.1955C158.516 56.1733 157.135 56.151 155.754 56.1287C154.251 56.1266 152.85 55.9825 151.367 56.1022C151.124 56.1425 150.982 56.0408 150.738 56.081C149.832 50.5968 147.727 45.4358 144.85 40.9032C144.932 40.6393 145.155 40.4772 145.481 40.173C147.433 38.3482 149.365 36.4014 151.439 34.5564C148.298 29.9422 144.364 25.8346 139.941 22.5588C138.111 24.3636 136.281 26.1683 134.431 27.8512C134.004 28.2974 133.678 28.6015 133.455 28.7636C129.073 25.7317 124.06 23.4298 118.599 22.2037C118.559 21.9599 118.519 21.7162 118.58 21.3304C118.767 18.6705 118.689 15.9289 118.754 13.289L118.734 13.1672C116.013 12.615 113.211 12.3267 110.45 12.2822C107.688 12.2377 104.824 12.3352 102.143 12.7781C102.163 12.9 102.184 13.0219 102.082 13.1639C102.037 15.9256 102.013 18.8092 101.968 21.5709C101.989 21.6927 102.009 21.8146 101.887 21.8348C96.3008 22.8828 91.1197 24.8656 86.4854 27.8848C86.3434 27.783 86.2014 27.6813 86.0392 27.4577C84.3563 25.6073 82.5516 23.7771 80.7468 21.9469C80.5847 21.7233 80.3007 21.5199 80.1587 21.4181C75.5445 24.5592 71.5587 28.4728 68.283 32.8952L68.425 32.9969C70.3718 34.9288 72.2168 37.0028 74.1635 38.9347C74.3055 39.0365 74.4677 39.2601 74.4878 39.3819C71.334 43.7841 69.1742 48.8985 67.948 54.3594C67.7042 54.3997 67.4605 54.4399 67.1966 54.3583C64.4148 54.1919 61.7951 54.2491 59.0132 54.0827L58.8913 54.1029C58.4409 56.6812 58.1526 59.4832 58.1081 62.2449C58.0636 65.0067 58.2628 67.7281 58.5839 70.4294L58.7058 70.4093C61.4675 70.4538 64.1073 70.5185 66.869 70.563C67.1128 70.5227 67.3767 70.6043 67.6405 70.6859C68.5466 76.1702 70.6714 81.453 73.5485 85.9856C73.4468 86.1276 73.3451 86.2696 73.1215 86.4318C71.0475 88.2768 69.1156 90.2236 67.0618 92.1904L66.96 92.3325C70.1011 96.9466 73.8929 100.953 78.3353 104.35C78.5186 103.944 78.6003 103.68 78.9457 103.498ZM108.615 89.0814C107.234 89.0592 105.833 88.915 104.412 88.649C100.412 87.9326 96.7391 86.1607 93.5948 83.8006C91.3227 82.1728 89.4777 80.0988 87.8362 77.7409C85.668 74.4683 84.1907 70.8312 83.6481 66.7893C83.4266 65.4488 83.327 64.088 83.4712 62.687C83.4934 61.3062 83.6376 59.9052 83.9237 58.6059C84.6401 54.6064 86.2902 50.9535 88.6503 47.8092C90.2781 45.5371 92.3319 43.5702 94.71 42.0505C97.9624 39.7604 101.721 38.263 105.763 37.7205C107.104 37.499 108.586 37.3793 109.987 37.5234C111.368 37.5457 112.769 37.6898 114.19 37.9558C118.19 38.6722 121.843 40.3223 124.987 42.6824C127.279 44.432 129.246 46.4859 130.746 48.7421C132.914 52.0146 134.391 55.6517 134.934 59.6936C135.155 61.0342 135.255 62.3949 135.111 63.7959C135.089 65.1768 134.944 66.5778 134.658 67.877C133.942 71.8765 132.292 75.5295 129.932 78.6738C128.182 80.966 126.128 82.9329 123.892 84.5543C120.62 86.7225 116.983 88.1998 112.961 88.8642C111.478 88.984 109.996 89.1037 108.615 89.0814Z" fill="#98CDFF" fill-opacity="0.8"/>
<path d="M118.673 70.3927C119.69 68.9727 120.546 67.329 120.853 65.4002C120.996 64.7506 121.017 64.1211 121.038 63.4916C121.06 62.8621 120.959 62.2528 120.98 61.6233C120.678 59.7952 120.01 58.0275 119.017 56.564C118.329 55.4258 117.436 54.5717 116.3 53.7578C114.88 52.7404 113.237 51.8852 111.308 51.5778C110.658 51.4347 110.029 51.4135 109.399 51.3923C108.77 51.3711 108.14 51.3499 107.409 51.4708C105.581 51.7728 103.813 52.4404 102.35 53.4334C101.333 54.1021 100.357 55.0145 99.5434 56.1506C98.5261 57.5706 97.691 59.3362 97.3635 61.143C97.2204 61.7927 97.1992 62.4222 97.178 63.0517C97.1568 63.6812 97.2575 64.2905 97.2363 64.92C97.5383 66.7481 98.2059 68.5158 99.1989 69.9793C99.8676 70.9956 100.78 71.9716 101.794 72.8057C103.234 73.9449 104.98 74.6581 106.787 74.9856C107.436 75.1287 108.066 75.1499 108.695 75.1711C109.325 75.1923 109.954 75.2135 110.686 75.0927C112.514 74.7907 114.281 74.123 115.745 73.13C116.985 72.2992 117.839 71.4069 118.673 70.3927ZM63.4358 171.789C63.5195 170.023 63.6032 168.256 63.5449 166.388C63.5047 166.144 63.6064 166.002 63.5863 165.88C67.2424 165.276 70.6358 163.839 73.7048 161.955C73.8468 162.057 74.1309 162.26 74.435 162.586C75.6315 163.765 76.848 165.067 77.9226 166.266C80.9514 164.138 83.6559 161.563 85.9143 158.561C84.6977 157.259 83.4811 155.958 82.1426 154.677C81.9805 154.453 81.8385 154.351 81.8184 154.23C83.833 151.268 85.4014 147.878 86.1783 144.245C86.3001 144.224 86.422 144.204 86.5439 144.184C87.5591 144.267 88.4324 144.248 89.4275 144.209C90.3007 144.189 91.1739 144.17 92.1892 144.253C92.5166 142.446 92.7222 140.659 92.7858 138.771C92.8494 136.883 92.6894 135.156 92.5093 133.308C91.6361 133.327 90.7427 133.224 89.7476 133.263C88.7525 133.303 87.8591 133.2 86.864 133.239C86.7421 133.259 86.6203 133.279 86.4782 133.178C85.8742 129.521 84.4372 126.128 82.553 123.059C82.6547 122.917 82.7565 122.775 82.9801 122.613C84.2815 121.396 85.5627 120.058 86.8641 118.841C84.7361 115.812 82.161 113.108 79.1587 110.85C77.9792 112.046 76.6778 113.263 75.4983 114.459C75.1729 114.763 74.9493 114.925 74.8476 115.067C71.8856 113.053 68.4965 111.484 64.9845 110.687C64.9644 110.565 64.9241 110.322 64.8838 110.078C64.9676 108.311 65.0513 106.545 64.993 104.676L64.9729 104.555C63.166 104.227 61.3793 104.021 59.3689 103.978C57.4804 103.914 55.6322 104.095 53.784 104.275C53.8041 104.397 53.8041 104.397 53.8243 104.518C53.7607 106.407 53.6971 108.295 53.7554 110.164C53.7755 110.286 53.7755 110.286 53.7956 110.407C50.0176 111.032 46.6243 112.469 43.5753 114.475C43.4333 114.373 43.4333 114.373 43.2913 114.271C42.0747 112.97 41.0002 111.77 39.8037 110.591C39.6617 110.489 39.4996 110.265 39.4794 110.143C36.4506 112.271 33.7461 114.847 31.6096 117.829C31.6096 117.829 31.6298 117.951 31.7516 117.93C33.0901 119.212 34.3268 120.635 35.5434 121.936C35.6854 122.038 35.7056 122.16 35.7257 122.282C33.7111 125.244 32.1426 128.633 31.3658 132.267C31.2439 132.287 31.122 132.307 30.8783 132.347C29.1117 132.264 27.2434 132.322 25.4768 132.238L25.3549 132.258C25.0274 134.065 24.8218 135.852 24.7582 137.74C24.6946 139.629 24.8546 141.355 25.0348 143.203L25.1566 143.183C26.9031 143.145 28.8117 143.331 30.5582 143.292C30.6801 143.272 30.9439 143.354 31.0658 143.334C31.6698 146.99 33.127 150.505 35.0112 153.574C34.9095 153.716 34.9095 153.716 34.8077 153.858C33.5063 155.075 32.1032 156.433 30.8018 157.65C30.8018 157.65 30.68 157.67 30.7001 157.792C32.828 160.821 35.4032 163.525 38.2836 165.804C38.3854 165.662 38.5072 165.642 38.7308 165.48C39.9104 164.283 41.2319 163.188 42.4114 161.992C42.5131 161.85 42.635 161.83 42.7367 161.688C45.7189 163.824 49.0878 165.271 52.8637 166.149C52.8637 166.149 52.8838 166.271 52.904 166.393C52.8404 168.282 52.8986 170.15 52.8351 172.038C52.8552 172.16 52.8552 172.16 52.8753 172.282C54.6822 172.61 56.4689 172.815 58.3574 172.879C59.7595 172.272 61.6077 172.092 63.4358 171.789ZM58.2198 155.374C57.2247 155.413 56.3313 155.31 55.4178 155.086C52.7175 154.655 50.2621 153.433 48.2539 151.887C46.8137 150.748 45.4551 149.345 44.4621 147.881C42.9827 145.747 41.9505 143.288 41.6294 140.587C41.4885 139.734 41.4493 138.739 41.4302 137.866C41.4112 136.992 41.4938 135.977 41.7386 135.185C42.1689 132.485 43.269 130.05 44.937 128.022C46.0763 126.581 47.3575 125.243 48.9228 124.108C51.0571 122.629 53.5158 121.596 56.339 121.255C57.1921 121.114 58.1872 121.075 59.1823 121.036C60.1774 120.997 61.0708 121.099 61.9843 121.324C64.6845 121.754 67.1399 122.976 69.1482 124.522C70.7102 125.642 71.947 127.065 73.0819 128.63C74.5613 130.764 75.5935 133.223 75.9146 135.924C76.0555 136.777 76.0948 137.773 76.1138 138.646C76.1329 139.519 76.0502 140.534 75.8256 141.448C75.3953 144.148 74.2952 146.583 72.6272 148.612C71.5081 150.174 70.0848 151.41 68.6414 152.525C66.507 154.005 64.0484 155.037 61.3471 155.358C60.0881 155.316 59.093 155.355 58.2198 155.374Z" fill="#98CDFF" fill-opacity="0.8"/>
<path d="M64.9186 142.874C65.6307 141.88 66.079 140.805 66.3853 139.627C66.4468 139.241 66.5082 138.856 66.5496 138.348C66.611 137.962 66.5305 137.475 66.4701 137.109C66.2687 135.89 65.8237 134.712 65.155 133.696C64.6685 133.025 64.0602 132.374 63.3502 131.866C62.3562 131.153 61.2604 130.583 60.1031 130.399C59.7174 130.337 59.2098 130.296 58.824 130.235C58.4383 130.173 57.9508 130.254 57.5852 130.314C56.3664 130.515 55.188 130.96 54.1717 131.629C53.5009 132.116 52.8502 132.724 52.3415 133.434C51.6293 134.428 51.181 135.504 50.8748 136.681C50.8133 137.067 50.7518 137.452 50.7105 137.96C50.649 138.346 50.7296 138.833 50.79 139.199C50.9913 140.418 51.4364 141.596 52.1051 142.612C52.5915 143.283 53.1998 143.934 53.9098 144.443C54.9039 145.155 55.9997 145.725 57.2788 145.889C57.6645 145.951 58.1722 145.992 58.5579 146.053C58.9437 146.115 59.4311 146.034 59.7968 145.974C61.0155 145.773 62.1939 145.328 63.2102 144.659C63.7592 144.193 64.4099 143.584 64.9186 142.874Z" fill="#98CDFF" fill-opacity="0.8"/>
</g>
<path d="M75.5 269.837L75.5 269.837L76.0256 65.2042C76.0256 65.2041 76.0256 65.2041 76.0256 65.204C76.032 62.985 76.8263 61.5577 77.9667 60.9166C79.1109 60.2734 80.7778 60.3228 82.7419 61.4413L82.7419 61.4414L373.337 226.934C375.298 228.051 377.098 229.982 378.407 232.218C379.716 234.455 380.506 236.95 380.5 239.168L379.974 443.801C379.968 446.005 379.174 447.434 378.032 448.079C376.888 448.725 375.221 448.682 373.258 447.564L82.6626 282.072C80.7024 280.955 78.9027 279.018 77.5936 276.777C76.2842 274.537 75.4937 272.041 75.5 269.837Z" fill="white" stroke="#132A60"/>
<path d="M388 235.733L387.465 439.856C387.465 442.142 386.625 443.791 385.289 444.54L377.472 449C378.809 448.251 379.649 446.602 379.649 444.316L380.184 240.193C380.184 235.547 376.861 229.888 372.737 227.528L82.9999 61.5002C80.9377 60.3386 77.9999 60.5002 76.9999 61.0002L83.4999 57.5003C84.8365 56.7508 87.062 56.8375 89.124 57.9992L380.553 223.105C384.678 225.428 388 231.086 388 235.733Z" fill="#132A60"/>
<g filter="url(#filter24_d_430_130)">
<path d="M285 285.415L284.97 296L149 218.586L149.03 208L285 285.415Z" fill="#6C63FF"/>
</g>
<g filter="url(#filter25_d_430_130)">
<path d="M285 332.415L284.969 343L148 265.585L148.031 255L285 332.415Z" fill="#6C63FF"/>
</g>
<g filter="url(#filter26_d_430_130)">
<path d="M285 308.681L284.97 319L149 242.319L149.03 232L285 308.681Z" fill="#6C63FF"/>
</g>
<path d="M110.504 288.874C111.063 287.677 111.153 286.333 110.757 285.08C110.361 283.827 109.505 282.748 108.343 282.035C108.107 281.891 107.859 282.23 108.095 282.374C109.179 283.036 109.976 284.041 110.342 285.208C110.708 286.376 110.62 287.628 110.092 288.739C109.978 288.98 110.391 289.114 110.504 288.874H110.504Z" fill="white"/>
<path d="M116.75 296.014C114.658 296.852 112.327 296.867 110.224 296.058C110.016 295.977 109.902 296.306 110.11 296.386C112.301 297.225 114.726 297.204 116.901 296.327C117.109 296.244 116.956 295.931 116.75 296.014Z" fill="white"/>
<path d="M115.645 307.099C114.401 309.294 112.43 310.907 110.125 311.616C109.896 311.686 110.01 312.062 110.238 311.992C112.636 311.249 114.684 309.566 115.973 307.279C116.096 307.061 115.767 306.882 115.645 307.099Z" fill="white"/>
<path d="M162.228 269.03C161.767 268.969 161.296 269.002 160.849 269.127C160.403 269.252 159.991 269.466 159.644 269.755C159.296 270.043 159.021 270.398 158.838 270.796C158.655 271.193 158.568 271.623 158.584 272.055L148 275.827L152.795 279L162.111 274.931C162.892 274.859 163.618 274.523 164.15 273.989C164.683 273.454 164.985 272.757 164.999 272.029C165.014 271.302 164.74 270.595 164.229 270.042C163.718 269.49 163.007 269.13 162.228 269.03H162.228Z" fill="#A1616A"/>
<path d="M123.681 267L122 270.18C122.406 272.197 123.456 274.012 124.979 275.33C127.553 277.588 141.01 286 141.01 286L158 277.126L155.028 273.016L141.69 277.667L134.165 270.274L123.681 267Z" fill="#3F3D56"/>
<path d="M122.149 317.27L123.927 317.619L113.202 376.832L111.423 376.484L122.149 317.27Z" fill="#CACACA"/>
<path d="M139.854 376.484L138.075 376.832L127.349 317.619L129.128 317.27L139.854 376.484Z" fill="#CACACA"/>
<path d="M126.5 320C119.044 320 113 317.986 113 315.5C113 313.015 119.044 311 126.5 311C133.956 311 140 313.015 140 315.5C140 317.986 133.956 320 126.5 320Z" fill="#CACACA"/>
<path d="M155.001 373L159.066 373L161 358L155 358.001L155.001 373Z" fill="#A1616A"/>
<path d="M154 377L166 377V376.842C166 375.558 165.508 374.327 164.632 373.419C163.756 372.51 162.568 372 161.329 372H161.329L154 372.001L154 377Z" fill="#2F2E41"/>
<path d="M137 353.106L140.31 355L149 342.796L144.115 340L137 353.106Z" fill="#A1616A"/>
<path d="M135 355.608L145.344 362L145.417 361.855C146.012 360.672 146.159 359.274 145.824 357.971C145.49 356.667 144.703 355.564 143.635 354.904L143.635 354.904L137.317 351L135 355.608Z" fill="#2F2E41"/>
<path d="M116.108 304.71C116.108 304.71 114.313 310.478 125.327 317.773L139.512 332.433L154.25 369L163 364.932L149.544 327.678L141.675 313.388L141.447 305.634L139.512 300.168L125.47 295L116.108 304.71Z" fill="#F86D70"/>
<path d="M145.194 353L160.113 329.829C160.798 328.763 161.101 327.484 160.97 326.212C160.84 324.941 160.283 323.756 159.397 322.861L144.292 307.639L141.731 305H136L138.687 315.215L148.01 326.102L137.233 345.751L145.194 353Z" fill="#F86D70"/>
<path d="M134.664 273.26L130.274 266.827L120.244 266C120.244 266 111.622 274.32 113.191 285.275C114.76 296.23 116.262 307 116.262 307C116.262 307 131.887 295.614 140 299.615L134.664 273.26Z" fill="#3F3D56"/>
<path d="M136.951 307.204C136.877 306.744 136.712 306.308 136.468 305.927C136.225 305.545 135.908 305.227 135.541 304.995C135.175 304.763 134.766 304.622 134.345 304.584C133.923 304.545 133.499 304.609 133.103 304.77L126.58 296L125 301.634L131.437 309.098C131.727 309.816 132.245 310.391 132.894 310.715C133.542 311.039 134.276 311.089 134.956 310.855C135.636 310.622 136.214 310.121 136.582 309.448C136.95 308.775 137.081 307.976 136.951 307.204Z" fill="#A1616A"/>
<path d="M129.033 307L132 302.427L123.576 290.438L127.916 280.513L127.6 268.707L124.014 268L123.969 268.024C122.226 269.095 120.878 270.771 120.15 272.772C119.255 275.159 117.259 284.12 116.148 289.249C115.929 290.243 115.953 291.28 116.217 292.261C116.481 293.242 116.975 294.135 117.654 294.854L129.033 307Z" fill="#3F3D56"/>
<path d="M121.148 260.653C119.187 257.221 120.271 252.785 123.57 250.746C126.869 248.706 131.133 249.834 133.094 253.266C135.055 256.697 133.971 261.133 130.672 263.173C127.373 265.213 123.109 264.085 121.148 260.653Z" fill="#A1616A"/>
<path d="M122.969 254.307C123.041 255.35 122.108 259.197 122.108 259.197C121.424 257.991 122.499 262 122.499 262C111.276 253.796 120.144 245.554 123.612 246.287C123.54 245.244 126.369 245.657 126.369 245.657C127.447 243.896 129.809 246.233 129.809 246.233L129.353 245.429C131.187 245.918 133 251.863 133 251.863C132.378 254.428 122.896 253.264 122.969 254.307Z" fill="#2F2E41"/>
<path d="M187.041 190.483C185.325 191.819 183.196 192.548 180.925 192.576C178.654 192.604 176.342 191.931 174.282 190.64C172.221 189.35 170.505 187.501 169.35 185.327C168.194 183.154 167.652 180.753 167.792 178.428C167.931 176.104 168.746 173.96 170.132 172.268C171.519 170.577 173.416 169.413 175.583 168.924C177.75 168.435 180.09 168.643 182.307 169.522C184.524 170.401 186.518 171.911 188.037 173.862C190.071 176.478 191.109 179.697 190.922 182.813C190.735 185.929 189.339 188.687 187.041 190.483ZM172.406 171.695C170.852 172.905 169.741 174.612 169.213 176.599C168.686 178.586 168.765 180.764 169.441 182.859C170.117 184.953 171.36 186.869 173.012 188.364C174.664 189.86 176.651 190.868 178.722 191.26C180.793 191.653 182.855 191.413 184.647 190.57C186.439 189.728 187.881 188.321 188.79 186.527C189.699 184.733 190.035 182.633 189.754 180.493C189.474 178.352 188.59 176.268 187.215 174.502C185.369 172.137 182.773 170.514 179.997 169.987C177.221 169.461 174.491 170.075 172.406 171.695Z" fill="#6C63FF"/>
<path d="M177.155 185.198C176.932 185.129 176.742 184.971 176.616 184.746L176.608 184.733L174.524 181.818C174.371 181.539 174.325 181.182 174.395 180.826C174.466 180.47 174.452 180.316 174.705 180.092C174.957 179.867 175.259 179.762 175.546 179.8C175.832 179.839 176.079 180.017 176.232 180.296L177.484 182.054L182.868 177.255C182.992 177.144 183.131 177.061 183.275 177.011C183.419 176.961 183.567 176.945 183.708 176.964C183.85 176.983 183.984 177.036 184.101 177.121C184.219 177.206 184.318 177.321 184.394 177.459C184.547 177.738 184.87 178.336 184.8 178.692C184.73 179.048 184.549 179.374 184.297 179.599L178.138 184.938C177.991 185.068 177.827 185.159 177.657 185.204C177.486 185.248 177.315 185.246 177.156 185.196L177.155 185.198Z" fill="#6C63FF"/>
<path d="M231.041 212.483C229.325 213.819 227.196 214.548 224.925 214.576C222.654 214.604 220.342 213.931 218.282 212.64C216.221 211.35 214.505 209.501 213.35 207.327C212.194 205.154 211.652 202.753 211.792 200.428C211.931 198.104 212.746 195.96 214.132 194.268C215.519 192.577 217.416 191.413 219.583 190.924C221.75 190.435 224.09 190.643 226.307 191.522C228.524 192.401 230.518 193.911 232.037 195.862C234.071 198.478 235.109 201.697 234.922 204.813C234.735 207.929 233.339 210.687 231.041 212.483ZM216.406 193.695C214.852 194.905 213.741 196.612 213.213 198.599C212.686 200.586 212.765 202.764 213.441 204.859C214.117 206.953 215.36 208.869 217.012 210.364C218.664 211.86 220.651 212.868 222.722 213.26C224.793 213.653 226.855 213.413 228.647 212.57C230.439 211.728 231.881 210.321 232.79 208.527C233.699 206.733 234.035 204.633 233.754 202.493C233.474 200.352 232.59 198.268 231.215 196.502C229.369 194.137 226.773 192.514 223.997 191.987C221.221 191.461 218.491 192.075 216.406 193.695Z" fill="#6C63FF"/>
<path d="M221.155 207.198C220.932 207.129 220.742 206.971 220.616 206.746L220.608 206.733L218.524 203.818C218.371 203.539 218.325 203.182 218.395 202.826C218.466 202.47 218.452 202.316 218.705 202.092C218.957 201.867 219.259 201.762 219.546 201.8C219.832 201.839 220.079 202.017 220.232 202.296L221.484 204.054L226.868 199.255C226.992 199.144 227.131 199.061 227.275 199.011C227.419 198.961 227.567 198.945 227.708 198.964C227.85 198.983 227.984 199.036 228.101 199.121C228.219 199.206 228.319 199.321 228.394 199.459C228.547 199.738 228.87 200.336 228.8 200.692C228.73 201.048 228.549 201.374 228.297 201.599L222.138 206.938C221.991 207.068 221.827 207.159 221.657 207.204C221.486 207.248 221.315 207.246 221.156 207.196L221.155 207.198Z" fill="#6C63FF"/>
<path d="M274.041 234.483C272.325 235.819 270.196 236.548 267.925 236.576C265.654 236.604 263.342 235.931 261.282 234.64C259.221 233.35 257.505 231.501 256.35 229.327C255.194 227.154 254.652 224.753 254.792 222.428C254.931 220.104 255.746 217.96 257.132 216.268C258.519 214.577 260.416 213.413 262.583 212.924C264.75 212.435 267.09 212.643 269.307 213.522C271.524 214.401 273.518 215.911 275.037 217.862C277.071 220.478 278.109 223.697 277.922 226.813C277.735 229.929 276.339 232.687 274.041 234.483ZM259.406 215.695C257.852 216.905 256.741 218.612 256.213 220.599C255.686 222.586 255.765 224.764 256.441 226.859C257.117 228.953 258.36 230.869 260.012 232.364C261.664 233.86 263.651 234.868 265.722 235.26C267.793 235.653 269.855 235.413 271.647 234.57C273.439 233.728 274.881 232.321 275.79 230.527C276.699 228.733 277.035 226.633 276.754 224.493C276.474 222.352 275.59 220.268 274.215 218.502C272.369 216.137 269.773 214.514 266.997 213.987C264.221 213.461 261.491 214.075 259.406 215.695Z" fill="#6C63FF"/>
<path d="M264.155 229.198C263.932 229.129 263.742 228.971 263.616 228.746L263.608 228.733L261.524 225.818C261.371 225.539 261.325 225.182 261.395 224.826C261.466 224.47 261.452 224.316 261.705 224.092C261.957 223.867 262.259 223.762 262.546 223.8C262.832 223.839 263.079 224.017 263.232 224.296L264.484 226.054L269.868 221.255C269.992 221.144 270.131 221.061 270.275 221.011C270.419 220.961 270.567 220.945 270.708 220.964C270.85 220.983 270.984 221.036 271.101 221.121C271.219 221.206 271.319 221.321 271.394 221.459C271.547 221.738 271.87 222.336 271.8 222.692C271.73 223.048 271.549 223.374 271.297 223.599L265.138 228.938C264.991 229.068 264.827 229.159 264.657 229.204C264.486 229.248 264.315 229.246 264.156 229.196L264.155 229.198Z" fill="#6C63FF"/>
<defs>
<filter id="filter0_d_430_130" x="428.335" y="396.468" width="16.8103" height="19.9873" filterUnits="userSpaceOnUse" color-interpolation-filters="sRGB">
<feFlood flood-opacity="0" result="BackgroundImageFix"/>
<feColorMatrix in="SourceAlpha" type="matrix" values="0 0 0 0 0 0 0 0 0 0 0 0 0 0 0 0 0 0 127 0" result="hardAlpha"/>
<feOffset/>
<feGaussianBlur stdDeviation="4"/>
<feComposite in2="hardAlpha" operator="out"/>
<feColorMatrix type="matrix" values="0 0 0 0 1 0 0 0 0 0.779 0 0 0 0 0.35 0 0 0 1 0"/>
<feBlend mode="normal" in2="BackgroundImageFix" result="effect1_dropShadow_430_130"/>
<feBlend mode="normal" in="SourceGraphic" in2="effect1_dropShadow_430_130" result="shape"/>
</filter>
<filter id="filter1_d_430_130" x="425.875" y="397.277" width="16.8103" height="19.9873" filterUnits="userSpaceOnUse" color-interpolation-filters="sRGB">
<feFlood flood-opacity="0" result="BackgroundImageFix"/>
<feColorMatrix in="SourceAlpha" type="matrix" values="0 0 0 0 0 0 0 0 0 0 0 0 0 0 0 0 0 0 127 0" result="hardAlpha"/>
<feOffset/>
<feGaussianBlur stdDeviation="4"/>
<feComposite in2="hardAlpha" operator="out"/>
<feColorMatrix type="matrix" values="0 0 0 0 1 0 0 0 0 0.779 0 0 0 0 0.35 0 0 0 1 0"/>
<feBlend mode="normal" in2="BackgroundImageFix" result="effect1_dropShadow_430_130"/>
<feBlend mode="normal" in="SourceGraphic" in2="effect1_dropShadow_430_130" result="shape"/>
</filter>
<filter id="filter2_d_430_130" x="423.414" y="398.085" width="16.8103" height="19.9873" filterUnits="userSpaceOnUse" color-interpolation-filters="sRGB">
<feFlood flood-opacity="0" result="BackgroundImageFix"/>
<feColorMatrix in="SourceAlpha" type="matrix" values="0 0 0 0 0 0 0 0 0 0 0 0 0 0 0 0 0 0 127 0" result="hardAlpha"/>
<feOffset/>
<feGaussianBlur stdDeviation="4"/>
<feComposite in2="hardAlpha" operator="out"/>
<feColorMatrix type="matrix" values="0 0 0 0 1 0 0 0 0 0.779 0 0 0 0 0.35 0 0 0 1 0"/>
<feBlend mode="normal" in2="BackgroundImageFix" result="effect1_dropShadow_430_130"/>
<feBlend mode="normal" in="SourceGraphic" in2="effect1_dropShadow_430_130" result="shape"/>
</filter>
<filter id="filter3_d_430_130" x="420.954" y="398.893" width="16.8103" height="19.9873" filterUnits="userSpaceOnUse" color-interpolation-filters="sRGB">
<feFlood flood-opacity="0" result="BackgroundImageFix"/>
<feColorMatrix in="SourceAlpha" type="matrix" values="0 0 0 0 0 0 0 0 0 0 0 0 0 0 0 0 0 0 127 0" result="hardAlpha"/>
<feOffset/>
<feGaussianBlur stdDeviation="4"/>
<feComposite in2="hardAlpha" operator="out"/>
<feColorMatrix type="matrix" values="0 0 0 0 1 0 0 0 0 0.779 0 0 0 0 0.35 0 0 0 1 0"/>
<feBlend mode="normal" in2="BackgroundImageFix" result="effect1_dropShadow_430_130"/>
<feBlend mode="normal" in="SourceGraphic" in2="effect1_dropShadow_430_130" result="shape"/>
</filter>
<filter id="filter4_d_430_130" x="418.493" y="399.701" width="16.8103" height="19.9873" filterUnits="userSpaceOnUse" color-interpolation-filters="sRGB">
<feFlood flood-opacity="0" result="BackgroundImageFix"/>
<feColorMatrix in="SourceAlpha" type="matrix" values="0 0 0 0 0 0 0 0 0 0 0 0 0 0 0 0 0 0 127 0" result="hardAlpha"/>
<feOffset/>
<feGaussianBlur stdDeviation="4"/>
<feComposite in2="hardAlpha" operator="out"/>
<feColorMatrix type="matrix" values="0 0 0 0 1 0 0 0 0 0.779 0 0 0 0 0.35 0 0 0 1 0"/>
<feBlend mode="normal" in2="BackgroundImageFix" result="effect1_dropShadow_430_130"/>
<feBlend mode="normal" in="SourceGraphic" in2="effect1_dropShadow_430_130" result="shape"/>
</filter>
<filter id="filter5_d_430_130" x="416.033" y="400.51" width="16.8103" height="19.9873" filterUnits="userSpaceOnUse" color-interpolation-filters="sRGB">
<feFlood flood-opacity="0" result="BackgroundImageFix"/>
<feColorMatrix in="SourceAlpha" type="matrix" values="0 0 0 0 0 0 0 0 0 0 0 0 0 0 0 0 0 0 127 0" result="hardAlpha"/>
<feOffset/>
<feGaussianBlur stdDeviation="4"/>
<feComposite in2="hardAlpha" operator="out"/>
<feColorMatrix type="matrix" values="0 0 0 0 1 0 0 0 0 0.779 0 0 0 0 0.35 0 0 0 1 0"/>
<feBlend mode="normal" in2="BackgroundImageFix" result="effect1_dropShadow_430_130"/>
<feBlend mode="normal" in="SourceGraphic" in2="effect1_dropShadow_430_130" result="shape"/>
</filter>
<filter id="filter6_d_430_130" x="413.573" y="401.318" width="16.8103" height="19.9873" filterUnits="userSpaceOnUse" color-interpolation-filters="sRGB">
<feFlood flood-opacity="0" result="BackgroundImageFix"/>
<feColorMatrix in="SourceAlpha" type="matrix" values="0 0 0 0 0 0 0 0 0 0 0 0 0 0 0 0 0 0 127 0" result="hardAlpha"/>
<feOffset/>
<feGaussianBlur stdDeviation="4"/>
<feComposite in2="hardAlpha" operator="out"/>
<feColorMatrix type="matrix" values="0 0 0 0 1 0 0 0 0 0.779 0 0 0 0 0.35 0 0 0 1 0"/>
<feBlend mode="normal" in2="BackgroundImageFix" result="effect1_dropShadow_430_130"/>
<feBlend mode="normal" in="SourceGraphic" in2="effect1_dropShadow_430_130" result="shape"/>
</filter>
<filter id="filter7_d_430_130" x="428.335" y="377.178" width="16.8103" height="19.9873" filterUnits="userSpaceOnUse" color-interpolation-filters="sRGB">
<feFlood flood-opacity="0" result="BackgroundImageFix"/>
<feColorMatrix in="SourceAlpha" type="matrix" values="0 0 0 0 0 0 0 0 0 0 0 0 0 0 0 0 0 0 127 0" result="hardAlpha"/>
<feOffset/>
<feGaussianBlur stdDeviation="4"/>
<feComposite in2="hardAlpha" operator="out"/>
<feColorMatrix type="matrix" values="0 0 0 0 1 0 0 0 0 0.779 0 0 0 0 0.35 0 0 0 1 0"/>
<feBlend mode="normal" in2="BackgroundImageFix" result="effect1_dropShadow_430_130"/>
<feBlend mode="normal" in="SourceGraphic" in2="effect1_dropShadow_430_130" result="shape"/>
</filter>
<filter id="filter8_d_430_130" x="425.875" y="377.987" width="16.8103" height="19.9873" filterUnits="userSpaceOnUse" color-interpolation-filters="sRGB">
<feFlood flood-opacity="0" result="BackgroundImageFix"/>
<feColorMatrix in="SourceAlpha" type="matrix" values="0 0 0 0 0 0 0 0 0 0 0 0 0 0 0 0 0 0 127 0" result="hardAlpha"/>
<feOffset/>
<feGaussianBlur stdDeviation="4"/>
<feComposite in2="hardAlpha" operator="out"/>
<feColorMatrix type="matrix" values="0 0 0 0 1 0 0 0 0 0.779 0 0 0 0 0.35 0 0 0 1 0"/>
<feBlend mode="normal" in2="BackgroundImageFix" result="effect1_dropShadow_430_130"/>
<feBlend mode="normal" in="SourceGraphic" in2="effect1_dropShadow_430_130" result="shape"/>
</filter>
<filter id="filter9_d_430_130" x="423.414" y="378.795" width="16.8103" height="19.9873" filterUnits="userSpaceOnUse" color-interpolation-filters="sRGB">
<feFlood flood-opacity="0" result="BackgroundImageFix"/>
<feColorMatrix in="SourceAlpha" type="matrix" values="0 0 0 0 0 0 0 0 0 0 0 0 0 0 0 0 0 0 127 0" result="hardAlpha"/>
<feOffset/>
<feGaussianBlur stdDeviation="4"/>
<feComposite in2="hardAlpha" operator="out"/>
<feColorMatrix type="matrix" values="0 0 0 0 1 0 0 0 0 0.779 0 0 0 0 0.35 0 0 0 1 0"/>
<feBlend mode="normal" in2="BackgroundImageFix" result="effect1_dropShadow_430_130"/>
<feBlend mode="normal" in="SourceGraphic" in2="effect1_dropShadow_430_130" result="shape"/>
</filter>
<filter id="filter10_d_430_130" x="420.954" y="379.603" width="16.8103" height="19.9873" filterUnits="userSpaceOnUse" color-interpolation-filters="sRGB">
<feFlood flood-opacity="0" result="BackgroundImageFix"/>
<feColorMatrix in="SourceAlpha" type="matrix" values="0 0 0 0 0 0 0 0 0 0 0 0 0 0 0 0 0 0 127 0" result="hardAlpha"/>
<feOffset/>
<feGaussianBlur stdDeviation="4"/>
<feComposite in2="hardAlpha" operator="out"/>
<feColorMatrix type="matrix" values="0 0 0 0 1 0 0 0 0 0.779 0 0 0 0 0.35 0 0 0 1 0"/>
<feBlend mode="normal" in2="BackgroundImageFix" result="effect1_dropShadow_430_130"/>
<feBlend mode="normal" in="SourceGraphic" in2="effect1_dropShadow_430_130" result="shape"/>
</filter>
<filter id="filter11_d_430_130" x="418.493" y="380.411" width="16.8103" height="19.9873" filterUnits="userSpaceOnUse" color-interpolation-filters="sRGB">
<feFlood flood-opacity="0" result="BackgroundImageFix"/>
<feColorMatrix in="SourceAlpha" type="matrix" values="0 0 0 0 0 0 0 0 0 0 0 0 0 0 0 0 0 0 127 0" result="hardAlpha"/>
<feOffset/>
<feGaussianBlur stdDeviation="4"/>
<feComposite in2="hardAlpha" operator="out"/>
<feColorMatrix type="matrix" values="0 0 0 0 1 0 0 0 0 0.779 0 0 0 0 0.35 0 0 0 1 0"/>
<feBlend mode="normal" in2="BackgroundImageFix" result="effect1_dropShadow_430_130"/>
<feBlend mode="normal" in="SourceGraphic" in2="effect1_dropShadow_430_130" result="shape"/>
</filter>
<filter id="filter12_d_430_130" x="416.033" y="381.22" width="16.8103" height="19.9873" filterUnits="userSpaceOnUse" color-interpolation-filters="sRGB">
<feFlood flood-opacity="0" result="BackgroundImageFix"/>
<feColorMatrix in="SourceAlpha" type="matrix" values="0 0 0 0 0 0 0 0 0 0 0 0 0 0 0 0 0 0 127 0" result="hardAlpha"/>
<feOffset/>
<feGaussianBlur stdDeviation="4"/>
<feComposite in2="hardAlpha" operator="out"/>
<feColorMatrix type="matrix" values="0 0 0 0 1 0 0 0 0 0.779 0 0 0 0 0.35 0 0 0 1 0"/>
<feBlend mode="normal" in2="BackgroundImageFix" result="effect1_dropShadow_430_130"/>
<feBlend mode="normal" in="SourceGraphic" in2="effect1_dropShadow_430_130" result="shape"/>
</filter>
<filter id="filter13_d_430_130" x="413.573" y="382.028" width="16.8103" height="19.9873" filterUnits="userSpaceOnUse" color-interpolation-filters="sRGB">
<feFlood flood-opacity="0" result="BackgroundImageFix"/>
<feColorMatrix in="SourceAlpha" type="matrix" values="0 0 0 0 0 0 0 0 0 0 0 0 0 0 0 0 0 0 127 0" result="hardAlpha"/>
<feOffset/>
<feGaussianBlur stdDeviation="4"/>
<feComposite in2="hardAlpha" operator="out"/>
<feColorMatrix type="matrix" values="0 0 0 0 1 0 0 0 0 0.779 0 0 0 0 0.35 0 0 0 1 0"/>
<feBlend mode="normal" in2="BackgroundImageFix" result="effect1_dropShadow_430_130"/>
<feBlend mode="normal" in="SourceGraphic" in2="effect1_dropShadow_430_130" result="shape"/>
</filter>
<filter id="filter14_d_430_130" x="428.335" y="357.147" width="16.8103" height="19.9873" filterUnits="userSpaceOnUse" color-interpolation-filters="sRGB">
<feFlood flood-opacity="0" result="BackgroundImageFix"/>
<feColorMatrix in="SourceAlpha" type="matrix" values="0 0 0 0 0 0 0 0 0 0 0 0 0 0 0 0 0 0 127 0" result="hardAlpha"/>
<feOffset/>
<feGaussianBlur stdDeviation="4"/>
<feComposite in2="hardAlpha" operator="out"/>
<feColorMatrix type="matrix" values="0 0 0 0 1 0 0 0 0 0.779 0 0 0 0 0.35 0 0 0 1 0"/>
<feBlend mode="normal" in2="BackgroundImageFix" result="effect1_dropShadow_430_130"/>
<feBlend mode="normal" in="SourceGraphic" in2="effect1_dropShadow_430_130" result="shape"/>
</filter>
<filter id="filter15_d_430_130" x="425.875" y="357.955" width="16.8103" height="19.9873" filterUnits="userSpaceOnUse" color-interpolation-filters="sRGB">
<feFlood flood-opacity="0" result="BackgroundImageFix"/>
<feColorMatrix in="SourceAlpha" type="matrix" values="0 0 0 0 0 0 0 0 0 0 0 0 0 0 0 0 0 0 127 0" result="hardAlpha"/>
<feOffset/>
<feGaussianBlur stdDeviation="4"/>
<feComposite in2="hardAlpha" operator="out"/>
<feColorMatrix type="matrix" values="0 0 0 0 1 0 0 0 0 0.779 0 0 0 0 0.35 0 0 0 1 0"/>
<feBlend mode="normal" in2="BackgroundImageFix" result="effect1_dropShadow_430_130"/>
<feBlend mode="normal" in="SourceGraphic" in2="effect1_dropShadow_430_130" result="shape"/>
</filter>
<filter id="filter16_d_430_130" x="423.414" y="358.763" width="16.8103" height="19.9873" filterUnits="userSpaceOnUse" color-interpolation-filters="sRGB">
<feFlood flood-opacity="0" result="BackgroundImageFix"/>
<feColorMatrix in="SourceAlpha" type="matrix" values="0 0 0 0 0 0 0 0 0 0 0 0 0 0 0 0 0 0 127 0" result="hardAlpha"/>
<feOffset/>
<feGaussianBlur stdDeviation="4"/>
<feComposite in2="hardAlpha" operator="out"/>
<feColorMatrix type="matrix" values="0 0 0 0 1 0 0 0 0 0.779 0 0 0 0 0.35 0 0 0 1 0"/>
<feBlend mode="normal" in2="BackgroundImageFix" result="effect1_dropShadow_430_130"/>
<feBlend mode="normal" in="SourceGraphic" in2="effect1_dropShadow_430_130" result="shape"/>
</filter>
<filter id="filter17_d_430_130" x="420.954" y="359.572" width="16.8103" height="19.9873" filterUnits="userSpaceOnUse" color-interpolation-filters="sRGB">
<feFlood flood-opacity="0" result="BackgroundImageFix"/>
<feColorMatrix in="SourceAlpha" type="matrix" values="0 0 0 0 0 0 0 0 0 0 0 0 0 0 0 0 0 0 127 0" result="hardAlpha"/>
<feOffset/>
<feGaussianBlur stdDeviation="4"/>
<feComposite in2="hardAlpha" operator="out"/>
<feColorMatrix type="matrix" values="0 0 0 0 1 0 0 0 0 0.779 0 0 0 0 0.35 0 0 0 1 0"/>
<feBlend mode="normal" in2="BackgroundImageFix" result="effect1_dropShadow_430_130"/>
<feBlend mode="normal" in="SourceGraphic" in2="effect1_dropShadow_430_130" result="shape"/>
</filter>
<filter id="filter18_d_430_130" x="418.493" y="360.38" width="16.8103" height="19.9873" filterUnits="userSpaceOnUse" color-interpolation-filters="sRGB">
<feFlood flood-opacity="0" result="BackgroundImageFix"/>
<feColorMatrix in="SourceAlpha" type="matrix" values="0 0 0 0 0 0 0 0 0 0 0 0 0 0 0 0 0 0 127 0" result="hardAlpha"/>
<feOffset/>
<feGaussianBlur stdDeviation="4"/>
<feComposite in2="hardAlpha" operator="out"/>
<feColorMatrix type="matrix" values="0 0 0 0 1 0 0 0 0 0.779 0 0 0 0 0.35 0 0 0 1 0"/>
<feBlend mode="normal" in2="BackgroundImageFix" result="effect1_dropShadow_430_130"/>
<feBlend mode="normal" in="SourceGraphic" in2="effect1_dropShadow_430_130" result="shape"/>
</filter>
<filter id="filter19_d_430_130" x="416.033" y="361.188" width="16.8103" height="19.9873" filterUnits="userSpaceOnUse" color-interpolation-filters="sRGB">
<feFlood flood-opacity="0" result="BackgroundImageFix"/>
<feColorMatrix in="SourceAlpha" type="matrix" values="0 0 0 0 0 0 0 0 0 0 0 0 0 0 0 0 0 0 127 0" result="hardAlpha"/>
<feOffset/>
<feGaussianBlur stdDeviation="4"/>
<feComposite in2="hardAlpha" operator="out"/>
<feColorMatrix type="matrix" values="0 0 0 0 1 0 0 0 0 0.779 0 0 0 0 0.35 0 0 0 1 0"/>
<feBlend mode="normal" in2="BackgroundImageFix" result="effect1_dropShadow_430_130"/>
<feBlend mode="normal" in="SourceGraphic" in2="effect1_dropShadow_430_130" result="shape"/>
</filter>
<filter id="filter20_d_430_130" x="413.573" y="361.996" width="16.8103" height="19.9873" filterUnits="userSpaceOnUse" color-interpolation-filters="sRGB">
<feFlood flood-opacity="0" result="BackgroundImageFix"/>
<feColorMatrix in="SourceAlpha" type="matrix" values="0 0 0 0 0 0 0 0 0 0 0 0 0 0 0 0 0 0 127 0" result="hardAlpha"/>
<feOffset/>
<feGaussianBlur stdDeviation="4"/>
<feComposite in2="hardAlpha" operator="out"/>
<feColorMatrix type="matrix" values="0 0 0 0 1 0 0 0 0 0.779 0 0 0 0 0.35 0 0 0 1 0"/>
<feBlend mode="normal" in2="BackgroundImageFix" result="effect1_dropShadow_430_130"/>
<feBlend mode="normal" in="SourceGraphic" in2="effect1_dropShadow_430_130" result="shape"/>
</filter>
<filter id="filter21_d_430_130" x="411.112" y="402.126" width="16.8103" height="19.9873" filterUnits="userSpaceOnUse" color-interpolation-filters="sRGB">
<feFlood flood-opacity="0" result="BackgroundImageFix"/>
<feColorMatrix in="SourceAlpha" type="matrix" values="0 0 0 0 0 0 0 0 0 0 0 0 0 0 0 0 0 0 127 0" result="hardAlpha"/>
<feOffset/>
<feGaussianBlur stdDeviation="4"/>
<feComposite in2="hardAlpha" operator="out"/>
<feColorMatrix type="matrix" values="0 0 0 0 1 0 0 0 0 0.779 0 0 0 0 0.35 0 0 0 1 0"/>
<feBlend mode="normal" in2="BackgroundImageFix" result="effect1_dropShadow_430_130"/>
<feBlend mode="normal" in="SourceGraphic" in2="effect1_dropShadow_430_130" result="shape"/>
</filter>
<filter id="filter22_d_430_130" x="411.112" y="382.836" width="16.8103" height="19.9873" filterUnits="userSpaceOnUse" color-interpolation-filters="sRGB">
<feFlood flood-opacity="0" result="BackgroundImageFix"/>
<feColorMatrix in="SourceAlpha" type="matrix" values="0 0 0 0 0 0 0 0 0 0 0 0 0 0 0 0 0 0 127 0" result="hardAlpha"/>
<feOffset/>
<feGaussianBlur stdDeviation="4"/>
<feComposite in2="hardAlpha" operator="out"/>
<feColorMatrix type="matrix" values="0 0 0 0 1 0 0 0 0 0.779 0 0 0 0 0.35 0 0 0 1 0"/>
<feBlend mode="normal" in2="BackgroundImageFix" result="effect1_dropShadow_430_130"/>
<feBlend mode="normal" in="SourceGraphic" in2="effect1_dropShadow_430_130" result="shape"/>
</filter>
<filter id="filter23_d_430_130" x="411.112" y="362.804" width="16.8103" height="19.9873" filterUnits="userSpaceOnUse" color-interpolation-filters="sRGB">
<feFlood flood-opacity="0" result="BackgroundImageFix"/>
<feColorMatrix in="SourceAlpha" type="matrix" values="0 0 0 0 0 0 0 0 0 0 0 0 0 0 0 0 0 0 127 0" result="hardAlpha"/>
<feOffset/>
<feGaussianBlur stdDeviation="4"/>
<feComposite in2="hardAlpha" operator="out"/>
<feColorMatrix type="matrix" values="0 0 0 0 1 0 0 0 0 0.779 0 0 0 0 0.35 0 0 0 1 0"/>
<feBlend mode="normal" in2="BackgroundImageFix" result="effect1_dropShadow_430_130"/>
<feBlend mode="normal" in="SourceGraphic" in2="effect1_dropShadow_430_130" result="shape"/>
</filter>
<filter id="filter24_d_430_130" x="141" y="200" width="152" height="104" filterUnits="userSpaceOnUse" color-interpolation-filters="sRGB">
<feFlood flood-opacity="0" result="BackgroundImageFix"/>
<feColorMatrix in="SourceAlpha" type="matrix" values="0 0 0 0 0 0 0 0 0 0 0 0 0 0 0 0 0 0 127 0" result="hardAlpha"/>
<feOffset/>
<feGaussianBlur stdDeviation="4"/>
<feComposite in2="hardAlpha" operator="out"/>
<feColorMatrix type="matrix" values="0 0 0 0 0.595833 0 0 0 0 0.80353 0 0 0 0 1 0 0 0 0.5 0"/>
<feBlend mode="normal" in2="BackgroundImageFix" result="effect1_dropShadow_430_130"/>
<feBlend mode="normal" in="SourceGraphic" in2="effect1_dropShadow_430_130" result="shape"/>
</filter>
<filter id="filter25_d_430_130" x="140" y="247" width="153" height="104" filterUnits="userSpaceOnUse" color-interpolation-filters="sRGB">
<feFlood flood-opacity="0" result="BackgroundImageFix"/>
<feColorMatrix in="SourceAlpha" type="matrix" values="0 0 0 0 0 0 0 0 0 0 0 0 0 0 0 0 0 0 127 0" result="hardAlpha"/>
<feOffset/>
<feGaussianBlur stdDeviation="4"/>
<feComposite in2="hardAlpha" operator="out"/>
<feColorMatrix type="matrix" values="0 0 0 0 0.595833 0 0 0 0 0.80353 0 0 0 0 1 0 0 0 0.5 0"/>
<feBlend mode="normal" in2="BackgroundImageFix" result="effect1_dropShadow_430_130"/>
<feBlend mode="normal" in="SourceGraphic" in2="effect1_dropShadow_430_130" result="shape"/>
</filter>
<filter id="filter26_d_430_130" x="141" y="224" width="152" height="103" filterUnits="userSpaceOnUse" color-interpolation-filters="sRGB">
<feFlood flood-opacity="0" result="BackgroundImageFix"/>
<feColorMatrix in="SourceAlpha" type="matrix" values="0 0 0 0 0 0 0 0 0 0 0 0 0 0 0 0 0 0 127 0" result="hardAlpha"/>
<feOffset/>
<feGaussianBlur stdDeviation="4"/>
<feComposite in2="hardAlpha" operator="out"/>
<feColorMatrix type="matrix" values="0 0 0 0 0.595833 0 0 0 0 0.80353 0 0 0 0 1 0 0 0 0.5 0"/>
<feBlend mode="normal" in2="BackgroundImageFix" result="effect1_dropShadow_430_130"/>
<feBlend mode="normal" in="SourceGraphic" in2="effect1_dropShadow_430_130" result="shape"/>
</filter>
<linearGradient id="paint0_linear_430_130" x1="410.499" y1="239.35" x2="410.499" y2="358.98" gradientUnits="userSpaceOnUse">
<stop stop-color="#98CDFF" stop-opacity="0"/>
<stop offset="1" stop-color="#98CDFF" stop-opacity="0.18"/>
</linearGradient>
<linearGradient id="paint1_linear_430_130" x1="410.769" y1="381.796" x2="410.769" y2="407.137" gradientUnits="userSpaceOnUse">
<stop stop-color="#283760"/>
<stop offset="1" stop-color="#23386C"/>
</linearGradient>
<linearGradient id="paint2_linear_430_130" x1="410.804" y1="362.467" x2="410.804" y2="386.982" gradientUnits="userSpaceOnUse">
<stop stop-color="#283760"/>
<stop offset="1" stop-color="#23386C"/>
</linearGradient>
<linearGradient id="paint3_linear_430_130" x1="410.785" y1="326.914" x2="410.785" y2="366.378" gradientUnits="userSpaceOnUse">
<stop stop-color="#2F4479"/>
<stop offset="1" stop-color="#4A63A6"/>
</linearGradient>
<clipPath id="clip0_430_130">
<rect width="158.11" height="158.11" fill="white" transform="translate(155.996) rotate(80.6189)"/>
</clipPath>
</defs>
</svg>
