<svg width="188" height="48" viewBox="0 0 188 48" fill="none" xmlns="http://www.w3.org/2000/svg">
<g clip-path="url(#clip0_54_345)">
<path d="M33.796 18.124C33.5366 18.3227 33.219 18.4279 32.8937 18.4229C33.1005 18.4178 33.3037 18.3678 33.4897 18.2763L33.796 18.124Z" fill="white"/>
<path d="M32.8937 18.4229C32.5679 18.4315 32.2492 18.3259 31.9915 18.124L32.2922 18.2763C32.4799 18.3685 32.6851 18.4185 32.8937 18.4229Z" fill="white"/>
<path d="M65.781 1.46053C65.7816 1.73489 65.7056 2.00382 65.5617 2.2363C65.4178 2.46879 65.2119 2.65534 64.9678 2.77444L50.0359 10.1053V46.3308C50.0481 46.5299 50.02 46.7294 49.9531 46.917C49.8863 47.1046 49.7822 47.2764 49.6474 47.4217C49.5125 47.567 49.3496 47.6829 49.1688 47.7621C48.988 47.8412 48.7931 47.8821 48.5962 47.8821C48.3992 47.8821 48.2043 47.8412 48.0235 47.7621C47.8427 47.6829 47.6798 47.567 47.5449 47.4217C47.4101 47.2764 47.306 47.1046 47.2392 46.917C47.1724 46.7294 47.1442 46.5299 47.1564 46.3308V11.5432L33.7895 18.1241L33.4832 18.2763C33.298 18.3728 33.0927 18.4231 32.8845 18.4231C32.6762 18.4231 32.4709 18.3728 32.2857 18.2763L31.985 18.1241L0.795522 2.77444C0.501492 2.62993 0.264647 2.38861 0.123778 2.09001C-0.0170896 1.7914 -0.0536363 1.45322 0.0201398 1.13084C0.0939159 0.808462 0.27364 0.521004 0.52986 0.315556C0.78608 0.110108 1.10361 -0.00114298 1.43045 8.85494e-06C1.64718 0.00151385 1.86064 0.0536103 2.05424 0.152258L32.8817 15.3271L63.698 0.152258C63.8676 0.0685351 64.052 0.0194762 64.2404 0.00789065C64.4288 -0.00369493 64.6176 0.0224299 64.796 0.0847468C64.9745 0.147064 65.139 0.244363 65.2803 0.37109C65.4216 0.497817 65.5369 0.651479 65.6195 0.823312C65.7228 1.01961 65.7782 1.23812 65.781 1.46053Z" fill="white"/>
<path d="M23.1359 23.3572C23.0538 23.5302 22.9386 23.6851 22.7971 23.8129C22.6557 23.9407 22.4906 24.0389 22.3115 24.1018C22.1323 24.1647 21.9427 24.191 21.7534 24.1794C21.5642 24.1678 21.3791 24.1183 21.2088 24.0339L5.23534 16.2181V46.3534C5.24757 46.5525 5.21941 46.752 5.15259 46.9396C5.08577 47.1272 4.9817 47.299 4.84681 47.4443C4.71192 47.5897 4.54906 47.7055 4.36827 47.7847C4.18748 47.8638 3.99258 47.9047 3.7956 47.9047C3.59862 47.9047 3.40373 47.8638 3.22294 47.7847C3.04214 47.7055 2.87929 47.5897 2.7444 47.4443C2.60951 47.299 2.50544 47.1272 2.43862 46.9396C2.3718 46.752 2.34364 46.5525 2.35587 46.3534V13.8948C2.35686 13.7946 2.36618 13.6946 2.38372 13.5959C2.39339 13.5481 2.40642 13.5009 2.42271 13.4549C2.43451 13.4099 2.45133 13.3664 2.47284 13.3253C2.48908 13.2829 2.50768 13.2415 2.52854 13.2012C2.57309 13.1279 2.61765 13.0546 2.66777 12.9869L3.06321 12.6373C3.09426 12.6159 3.12797 12.5989 3.16346 12.5865C3.18466 12.5697 3.20945 12.5581 3.23586 12.5527C3.25056 12.5497 3.26572 12.5497 3.28042 12.5527L3.40295 12.5132C3.45934 12.4965 3.51714 12.4852 3.5756 12.4794H3.79839C3.86684 12.4711 3.93602 12.4711 4.00446 12.4794H4.11585C4.1672 12.4872 4.2176 12.5004 4.26623 12.5189C4.32025 12.5386 4.37243 12.5631 4.42218 12.5922H4.47788L22.4675 21.3948C22.6398 21.4779 22.7941 21.5949 22.9212 21.739C23.0484 21.8831 23.146 22.0514 23.2082 22.2341C23.2704 22.4168 23.296 22.6102 23.2836 22.803C23.2712 22.9958 23.221 23.1842 23.1359 23.3572Z" fill="white"/>
<path d="M2.35594 13.8946C2.35439 13.7942 2.36396 13.694 2.38448 13.5957C2.3665 13.6944 2.35695 13.7943 2.35594 13.8946Z" fill="white"/>
<path d="M2.49573 13.2571L2.52999 13.2012C2.50861 13.2411 2.48955 13.2822 2.4729 13.3242C2.4779 13.3011 2.48556 13.2786 2.49573 13.2571Z" fill="white"/>
<path d="M88.0545 28.2577V5.7915H106.261V8.75767H92.5881V15.5584H104.724V18.519H92.5881V28.2859L88.0545 28.2577Z" fill="white"/>
<path d="M105.721 28.2577L115.947 5.7915H121.021L131.163 28.2577H126.507L123.844 22.4663H113.078L110.416 28.2577H105.721ZM113.786 19.5396H123.098L118.442 9.24827L113.786 19.5396Z" fill="white"/>
<path d="M135.607 28.2577V5.7915H147.916C150.909 5.7915 153.09 6.43812 154.46 7.73136C155.153 8.40721 155.695 9.22543 156.049 10.131C156.404 11.0365 156.563 12.0084 156.515 12.9814C156.552 14.4586 156.05 15.8978 155.106 17.0246C154.026 18.222 152.599 19.0415 151.029 19.3648C151.473 19.615 151.868 19.9457 152.193 20.3404C152.522 20.7718 152.802 21.239 153.029 21.7332L156.371 28.2577H151.737L148.456 21.9814C148.214 21.4521 147.828 21.004 147.342 20.69C146.656 20.384 145.907 20.2524 145.159 20.3066H140.147V28.2577H135.607ZM140.141 17.2332H146.707C148.068 17.311 149.419 16.9583 150.573 16.2238C151.514 15.5471 151.987 14.4701 151.987 12.9814C151.987 10.1656 150.367 8.75768 147.125 8.75768H140.141V17.2332Z" fill="white"/>
<path d="M164.268 28.6073C162.299 28.6515 160.334 28.3812 158.448 27.8065V24.5979C159.215 24.8501 160.001 25.0387 160.798 25.1618C161.684 25.3118 162.58 25.3872 163.477 25.3874C165.338 25.3874 166.63 25.0659 167.376 24.4287C168.122 23.7915 168.49 22.737 168.49 21.3385V5.7915H173.018V21.9814C173.018 24.1205 172.292 25.7595 170.84 26.8986C169.381 28.0377 167.203 28.6073 164.268 28.6073Z" fill="white"/>
<path d="M178.053 28.2577V5.7915H182.581V28.2577H178.053Z" fill="white"/>
<path d="M86.0439 47.8421V37.4662H82.2678V35.8872H91.8028V37.4662H88.0434V47.8421H86.0439Z" fill="#B3B3B3"/>
<path d="M93.3957 47.8421V35.8872H101.628V37.4662H95.3952V41.0752H100.965V42.6372H95.3952V46.2744H101.628V47.8421H93.3957Z" fill="#B3B3B3"/>
<path d="M108.834 48.0001C106.889 48.0001 105.418 47.4625 104.423 46.3873C103.382 45.1855 102.847 43.6191 102.931 42.0227C102.903 40.862 103.12 39.7087 103.566 38.6392C103.963 37.7198 104.64 36.9531 105.498 36.4512C106.524 35.8959 107.678 35.6291 108.84 35.6787C109.469 35.6758 110.097 35.7287 110.717 35.8366C111.255 35.9368 111.786 36.0763 112.304 36.2539V38.0189C111.796 37.8163 111.27 37.6634 110.734 37.5622C110.156 37.4585 109.571 37.4075 108.985 37.4099C107.522 37.4099 106.486 37.8046 105.877 38.5941C105.209 39.6062 104.89 40.8135 104.969 42.0283C104.885 43.1797 105.24 44.3199 105.961 45.2144C106.618 45.9362 107.631 46.2971 109.024 46.2971C109.583 46.2955 110.142 46.2503 110.695 46.1618C111.243 46.0714 111.78 45.924 112.299 45.7219V47.5039C111.781 47.6745 111.25 47.799 110.711 47.8761C110.09 47.9636 109.462 48.005 108.834 48.0001Z" fill="#B3B3B3"/>
<path d="M114.243 47.842V35.8871H116.003L122.162 44.6897V35.8589H124.167V47.842H122.385L116.259 39.0619V47.842H114.243Z" fill="#B3B3B3"/>
<path d="M131.697 47.9999C129.841 47.9999 128.441 47.5018 127.498 46.5056C126.555 45.5093 126.091 43.9661 126.106 41.8759C126.106 39.6992 126.57 38.1202 127.498 37.139C128.426 36.1578 129.826 35.6691 131.697 35.6729C133.58 35.6729 134.982 36.1616 135.902 37.139C136.823 38.1165 137.286 39.6954 137.289 41.8759C137.289 43.9661 136.827 45.5093 135.902 46.5056C134.978 47.5018 133.576 47.9999 131.697 47.9999ZM131.697 46.3082C132.198 46.3513 132.702 46.2816 133.173 46.1042C133.644 45.9267 134.07 45.6459 134.421 45.2819C135 44.5939 135.29 43.4661 135.29 41.8984C135.29 40.2405 135 39.0808 134.421 38.4191C133.864 37.7537 132.934 37.4266 131.697 37.4266C131.202 37.3836 130.704 37.4501 130.236 37.6215C129.769 37.7929 129.344 38.065 128.991 38.4191C128.411 39.077 128.122 40.2368 128.122 41.8984C128.122 43.4699 128.411 44.5977 128.991 45.2819C129.341 45.6415 129.765 45.9185 130.233 46.093C130.7 46.2675 131.201 46.3352 131.697 46.2913V46.3082Z" fill="#B3B3B3"/>
<path d="M139.233 47.8421V35.8872H141.233V46.2857H147.281V47.8421H139.233Z" fill="#B3B3B3"/>
<path d="M153.536 47.9999C151.679 47.9999 150.279 47.5018 149.336 46.5056C148.393 45.5093 147.929 43.9661 147.944 41.8759C147.944 39.6992 148.408 38.1202 149.336 37.139C150.264 36.1578 151.664 35.6691 153.536 35.6729C155.418 35.6729 156.816 36.1635 157.741 37.139C158.665 38.1146 159.127 39.6992 159.127 41.8759C159.127 43.9661 158.665 45.5093 157.741 46.5056C156.816 47.5037 155.418 47.9999 153.536 47.9999ZM153.536 46.3082C154.036 46.3501 154.54 46.2799 155.01 46.1025C155.481 45.9252 155.907 45.645 156.259 45.2819C156.838 44.5939 157.128 43.4661 157.128 41.8984C157.128 40.2405 156.838 39.0808 156.259 38.4191C155.903 38.0646 155.475 37.7924 155.005 37.6211C154.535 37.4498 154.033 37.3834 153.536 37.4266C152.31 37.4266 151.408 37.7537 150.829 38.4191C150.25 39.0845 149.96 40.2405 149.96 41.8984C149.96 43.4699 150.25 44.5977 150.829 45.2819C151.179 45.6419 151.603 45.919 152.071 46.0936C152.539 46.2681 153.039 46.3356 153.536 46.2913V46.3082Z" fill="#B3B3B3"/>
<path d="M166.568 47.9999C164.623 47.9999 163.16 47.4679 162.18 46.404C161.149 45.2126 160.619 43.6604 160.704 42.0788C160.678 40.9178 160.896 39.7645 161.344 38.6954C161.747 37.7671 162.429 36.9915 163.293 36.4792C164.317 35.9181 165.472 35.6473 166.635 35.6954C167.271 35.6926 167.906 35.7397 168.534 35.8364C169.08 35.9218 169.616 36.0558 170.138 36.2368V37.9792C169.066 37.593 167.935 37.4021 166.797 37.4153C165.293 37.4153 164.235 37.8157 163.633 38.6221C162.966 39.6472 162.647 40.8649 162.725 42.0901C162.646 43.2188 162.986 44.3368 163.678 45.2255C164.313 45.9473 165.299 46.3025 166.63 46.3025C167.495 46.3313 168.358 46.2053 169.181 45.9303V42.592H166.229V41.2725H170.885V47.03C170.378 47.3335 169.83 47.5615 169.258 47.7067C168.379 47.927 167.474 48.0257 166.568 47.9999Z" fill="#B3B3B3"/>
<path d="M172.823 47.8421V35.8872H174.817V47.8421H172.823Z" fill="#B3B3B3"/>
<path d="M176.783 47.8421L181.289 35.8872H183.516L187.972 47.8421H185.923L184.747 44.7632H179.997L178.827 47.8421H176.783ZM180.336 43.2011H184.447L182.391 37.6917L180.336 43.2011Z" fill="#B3B3B3"/>
</g>
<defs>
<clipPath id="clip0_54_345">
<rect width="188" height="48" fill="white"/>
</clipPath>
</defs>
</svg>
