<svg width="136" height="143" viewBox="0 0 136 143" fill="none" xmlns="http://www.w3.org/2000/svg">
<path d="M79.5 132C78.904 132 78.3019 131.99 77.7109 131.972L77.7243 131.539C78.5729 131.565 79.4389 131.573 80.2916 131.561L80.2974 131.994C80.032 131.998 79.7662 132 79.5 132ZM82.8825 131.899L82.8573 131.467C83.7072 131.416 84.568 131.345 85.4158 131.256L85.4607 131.687C84.6064 131.777 83.7391 131.849 82.8825 131.899ZM75.1281 131.832C74.2711 131.766 73.4051 131.679 72.5539 131.574L72.6064 131.143C73.451 131.248 74.3103 131.334 75.1608 131.4L75.1281 131.832ZM88.0262 131.355L87.9618 130.927C88.8062 130.798 89.6572 130.648 90.4903 130.481L90.574 130.906C89.7344 131.074 88.8772 131.225 88.0262 131.355ZM69.9946 131.197C69.1479 131.052 68.2933 130.886 67.4546 130.702L67.5457 130.278C68.3781 130.461 69.2261 130.626 70.0663 130.769L69.9946 131.197ZM93.099 130.338L92.9958 129.917C93.8247 129.711 94.6582 129.482 95.4733 129.238L95.5954 129.654C94.774 129.9 93.9342 130.13 93.099 130.338ZM64.9401 130.09C64.1096 129.867 63.2739 129.622 62.4561 129.361L62.5856 128.948C63.3972 129.206 64.2265 129.45 65.0505 129.671L64.9401 130.09ZM98.0577 128.854L97.9167 128.445C98.7211 128.163 99.5301 127.858 100.322 127.538L100.481 127.941C99.6836 128.262 98.8684 128.57 98.0577 128.854ZM60.0018 128.515C59.1952 128.215 58.3836 127.893 57.5898 127.555L57.7565 127.156C58.5443 127.491 59.3496 127.811 60.1501 128.108L60.0018 128.515ZM102.855 126.918L102.677 126.523C103.449 126.169 104.226 125.791 104.984 125.4L105.18 125.786C104.415 126.18 103.633 126.561 102.855 126.918ZM107.452 124.547L107.239 124.171C107.98 123.744 108.719 123.296 109.437 122.838L109.666 123.204C108.943 123.666 108.198 124.117 107.452 124.547ZM111.818 121.76L111.572 121.405C112.269 120.914 112.965 120.399 113.641 119.875L113.903 120.219C113.222 120.746 112.521 121.265 111.818 121.76ZM46.3323 121.15C45.6389 120.642 44.9461 120.109 44.2732 119.567L44.5413 119.229C45.2091 119.767 45.8966 120.295 46.5847 120.799L46.3323 121.15ZM115.916 118.583L115.639 118.251C116.289 117.698 116.936 117.121 117.562 116.537L117.854 116.855C117.223 117.444 116.571 118.025 115.916 118.583ZM42.2881 117.892C41.6423 117.322 41.0006 116.728 40.3811 116.128L40.6786 115.815C41.2935 116.411 41.9302 117 42.5711 117.566L42.2881 117.892ZM119.713 115.04L119.407 114.735C120.006 114.123 120.599 113.489 121.169 112.851L121.488 113.141C120.914 113.784 120.317 114.422 119.713 115.04ZM38.5561 114.279C37.9636 113.65 37.3783 113 36.8167 112.348L37.1413 112.064C37.6986 112.711 38.2793 113.356 38.8674 113.98L38.5561 114.279ZM123.176 111.162L122.844 110.887C123.385 110.222 123.918 109.536 124.429 108.848L124.773 109.107C124.259 109.801 123.721 110.493 123.176 111.162ZM35.1666 110.339C34.6344 109.661 34.1105 108.961 33.6092 108.258L33.9578 108.005C34.4554 108.702 34.9753 109.397 35.5035 110.07L35.1666 110.339ZM126.275 106.981L125.92 106.737C126.399 106.025 126.869 105.293 127.315 104.56L127.681 104.786C127.231 105.525 126.758 106.264 126.275 106.981ZM32.148 106.107C31.6798 105.383 31.2216 104.638 30.786 103.892L31.156 103.672C31.5884 104.412 32.0432 105.152 32.5078 105.87L32.148 106.107ZM128.986 102.529L128.61 102.319C129.022 101.566 129.423 100.793 129.801 100.021L130.186 100.213C129.805 100.991 129.401 101.77 128.986 102.529ZM131.28 97.843L130.886 97.669C131.229 96.8802 131.558 96.0723 131.864 95.2681L132.265 95.4234C131.956 96.234 131.625 97.048 131.28 97.843ZM27.3239 96.9077C26.9945 96.1102 26.679 95.2943 26.3864 94.4824L26.7902 94.3343C27.0806 95.14 27.3936 95.9496 27.7204 96.7409L27.3239 96.9077ZM133.138 92.9598L132.73 92.8235C132.998 92.0084 133.251 91.1754 133.482 90.3472L133.896 90.4644C133.663 91.299 133.408 92.1386 133.138 92.9598ZM25.5588 92.0099C25.3031 91.1838 25.0629 90.34 24.8448 89.5014L25.2604 89.3914C25.4768 90.2236 25.7153 91.0611 25.9689 91.8808L25.5588 92.0099ZM134.538 87.9365L134.12 87.8383C134.312 87.0029 134.488 86.1497 134.643 85.3029L135.065 85.3812C134.909 86.2348 134.732 87.0943 134.538 87.9365ZM24.2465 86.9625C24.0673 86.1159 23.9052 85.2534 23.7646 84.3985L24.1884 84.3274C24.328 85.1759 24.4889 86.0318 24.6667 86.8719L24.2465 86.9625ZM135.475 82.8048L135.049 82.746C135.164 81.897 135.262 81.0314 135.339 80.1729L135.767 80.2119C135.689 81.0771 135.591 81.9493 135.475 82.8048ZM23.3998 81.8151C23.2984 80.9571 23.2153 80.0832 23.1524 79.2178L23.581 79.186C23.6432 80.0451 23.7259 80.9122 23.8265 81.7639L23.3998 81.8151ZM135.942 77.6086L135.513 77.5891C135.551 76.7302 135.57 75.8591 135.57 75H136C136 75.8656 135.98 76.7434 135.942 77.6086ZM23.0222 76.6113C23.0076 76.0798 23.0001 75.5376 23 75C23 74.6664 23.0028 74.3335 23.0085 74.0012L23.4382 74.0088C23.4325 74.3386 23.4297 74.669 23.4297 75C23.4298 75.5336 23.4372 76.0718 23.4517 76.5994L23.0222 76.6113ZM23.5401 71.4211L23.1113 71.394C23.1649 70.5279 23.239 69.6532 23.3312 68.794L23.7583 68.8406C23.6667 69.6934 23.5934 70.5615 23.5401 71.4211ZM135.293 68.7766C135.207 67.9221 135.089 67.5055 134.964 66.6546L135.389 66.5913C135.515 67.4486 135.623 68.103 135.709 68.964L135.293 68.7766ZM24.0928 66.2731L23.6682 66.2069C23.7998 65.3494 23.9528 64.4851 24.1228 63.6378L24.5439 63.7237C24.3752 64.5646 24.2234 65.4223 24.0928 66.2731ZM134.531 64.1024C134.367 63.2569 134.182 62.4057 133.981 61.5727L134.399 61.4702C134.601 62.3096 134.787 63.1674 134.952 64.0193L134.531 64.1024ZM25.1105 61.198L24.6938 61.0926C24.9024 60.253 25.1335 59.4065 25.3806 58.5765L25.792 58.7011C25.5469 59.5249 25.3176 60.3649 25.1105 61.198ZM133.317 59.0711C133.077 58.2457 132.815 57.4156 132.538 56.6032L132.945 56.4623C133.224 57.2808 133.488 58.1176 133.729 58.9492L133.317 59.0711ZM131.648 54.1741C131.335 53.3764 130.999 52.5758 130.65 51.7945L131.042 51.6165C131.394 52.4039 131.732 53.2106 132.047 54.0143L131.648 54.1741ZM129.545 49.4628C129.161 48.6976 128.753 47.9307 128.334 47.1839L128.708 46.9704C129.131 47.723 129.541 48.4956 129.928 49.2668L129.545 49.4628ZM30.8762 46.8123L30.5038 46.596C30.9324 45.8451 31.3844 45.0936 31.8473 44.3623L32.2094 44.5956C31.7501 45.3213 31.3014 46.0672 30.8762 46.8123ZM127.021 44.9625C126.567 44.2333 126.092 43.5069 125.608 42.8034L125.961 42.5564C126.448 43.2653 126.927 43.9972 127.385 44.732L127.021 44.9625ZM33.6417 42.4433L33.2905 42.1935C33.7858 41.4848 34.3037 40.7784 34.8301 40.094L35.1695 40.3596C34.6472 41.039 34.1331 41.74 33.6417 42.4433ZM124.098 40.7111C123.581 40.027 123.041 39.3468 122.495 38.6897L122.825 38.4112C123.375 39.0735 123.918 39.7587 124.44 40.4481L124.098 40.7111ZM36.7896 38.349L36.4626 38.0679C37.0184 37.4093 37.5978 36.7537 38.1845 36.1194L38.4985 36.4151C37.9163 37.0446 37.3414 37.6953 36.7896 38.349ZM120.803 36.7434C120.226 36.1096 119.627 35.4815 119.023 34.8766L119.326 34.569C119.934 35.1787 120.538 35.8115 121.119 36.4501L120.803 36.7434ZM40.2924 34.5623L39.9919 34.2524C40.6063 33.646 41.2421 33.0465 41.8815 32.4706L42.1676 32.794C41.5331 33.3655 40.9021 33.9604 40.2924 34.5623ZM117.162 33.0929C116.529 32.5141 115.876 31.9433 115.221 31.3963L115.495 31.0623C116.155 31.6135 116.813 32.1886 117.451 32.7718L117.162 33.0929ZM44.1203 31.1137L43.849 30.7776C44.5135 30.2317 45.2003 29.6933 45.8903 29.1772L46.1462 29.5254C45.4614 30.0376 44.7797 30.5719 44.1203 31.1137ZM48.2411 28.0324L48.0013 27.6728C48.7125 27.1901 49.4447 26.7173 50.1776 26.2675L50.4009 26.6379C49.6736 27.0842 48.947 27.5535 48.2411 28.0324ZM52.621 25.3447L52.4148 24.9643C53.1672 24.549 53.9387 24.146 54.7078 23.7664L54.8966 24.1558C54.1334 24.5325 53.3678 24.9324 52.621 25.3447ZM104.474 24.3404C103.71 23.9561 102.927 23.5849 102.147 23.2371L102.32 22.8406C103.106 23.1911 103.896 23.5652 104.666 23.9524L104.474 24.3404ZM57.223 23.0738L57.0523 22.6761C57.8386 22.3323 58.6429 22.0025 59.4429 21.6959L59.5954 22.1012C58.8015 22.4054 58.0034 22.7326 57.223 23.0738ZM99.7703 22.2427C98.9747 21.9315 98.1605 21.6346 97.3501 21.3603L97.4869 20.9492C98.3034 21.2258 99.1239 21.5249 99.9255 21.8387L99.7703 22.2427ZM62.0156 21.2378L61.8817 20.8259C62.6983 20.5559 63.5313 20.3016 64.3577 20.0704L64.4726 20.4879C63.6525 20.7175 62.8258 20.9698 62.0156 21.2378ZM94.898 20.5933C94.0786 20.3577 93.2428 20.1382 92.4139 19.941L92.5125 19.5192C93.3479 19.7179 94.19 19.939 95.0159 20.1764L94.898 20.5933ZM66.9614 19.8531L66.8657 19.4305C67.7028 19.2376 68.5555 19.0618 69.4 18.9082L69.4764 19.3347C68.6381 19.4873 67.792 19.6617 66.9614 19.8531ZM89.9024 19.4051C89.0658 19.2467 88.2136 19.1058 87.3694 18.9862L87.4289 18.5569C88.2797 18.6775 89.1386 18.8195 89.9817 18.9791L89.9024 19.4051ZM72.0125 18.9335L71.9556 18.5038C72.8061 18.3893 73.6711 18.293 74.5264 18.2179L74.5638 18.6496C73.7149 18.7244 72.8567 18.8198 72.0125 18.9335ZM84.8197 18.6848C83.9734 18.6044 83.112 18.5423 82.2592 18.5008L82.2802 18.0677C83.1393 18.1097 84.0072 18.1722 84.86 18.2532L84.8197 18.6848ZM77.1258 18.4834L77.1077 18.0504C77.8974 18.0171 78.7022 18.0002 79.5 18L79.6945 18.0003L79.6932 18.4338L79.5 18.4335C78.7082 18.4337 77.9093 18.4505 77.1258 18.4834Z" fill="#3F3D56"/>
<path d="M113.317 121.677C123.454 121.677 131.672 113.313 131.672 102.995C131.672 92.6763 123.454 84.3116 113.317 84.3116C103.18 84.3116 94.9619 92.6763 94.9619 102.995C94.9619 113.313 103.18 121.677 113.317 121.677Z" fill="#FFC759"/>
<path opacity="0.1" d="M113.317 119.055C122.006 119.055 129.05 111.865 129.05 102.995C129.05 94.1245 122.006 86.9338 113.317 86.9338C104.628 86.9338 97.5841 94.1245 97.5841 102.995C97.5841 111.865 104.628 119.055 113.317 119.055Z" fill="black"/>
<path d="M112.602 112.5V110.161C111.382 110.138 110.12 109.721 109.384 109.142L109.889 107.591C110.763 108.226 111.824 108.575 112.917 108.586C114.411 108.586 115.42 107.637 115.42 106.317C115.42 105.044 114.6 104.256 113.044 103.562C110.898 102.636 109.573 101.57 109.573 99.5559C109.573 97.6339 110.814 96.1751 112.749 95.8278V93.4891H114.053V95.7352C115.026 95.7481 115.974 96.0292 116.788 96.5456L116.262 98.0739C115.481 97.5564 114.557 97.2817 113.611 97.2866C111.992 97.2866 111.382 98.3517 111.382 99.278C111.382 100.482 112.16 101.084 113.99 101.918C116.156 102.89 117.25 104.094 117.25 106.155C117.25 107.984 116.093 109.698 113.927 110.091V112.5H112.602Z" fill="white"/>
<path d="M132.983 140.538C119.945 142.486 106.69 142.486 93.6508 140.538V136.099C106.703 137.85 119.931 137.85 132.983 136.099V140.538Z" fill="#FFC759"/>
<path d="M132.983 133.821C119.945 135.985 106.69 135.985 93.6508 133.821V128.888C106.703 130.834 119.931 130.834 132.983 128.888V133.821Z" fill="#FFC759"/>
<path d="M132.983 126.772C119.945 128.72 106.69 128.72 93.6508 126.772V122.333C106.703 124.084 119.931 124.084 132.983 122.333V126.772Z" fill="#FFC759"/>
<path d="M48.2402 89.6966C47.3664 86.8929 49.1024 83.9591 51.9761 83.3543L61.7405 81.2993C64.3592 80.7482 66.9492 82.3559 67.6422 84.9406C69.0462 90.1779 71.3767 98.5837 73.0709 103.235C74.9937 108.514 79.5516 119.257 81.7582 124.408C82.4319 125.981 81.6599 127.797 80.0599 128.404L67.6451 133.111C66.1514 133.678 64.4769 132.975 63.8405 131.51C61.7242 126.637 57.2126 116.158 55.1411 110.656C53.3086 105.789 50.1518 95.8299 48.2402 89.6966Z" fill="url(#paint0_linear_171_581)"/>
<path d="M79.2903 13.9694C69.9283 23.912 46.2657 37.2137 32.959 40.0142C24.1672 68.4179 37.1912 85.592 44.8021 90.6286C53.4907 86.8263 90.6881 89.8228 98.7198 94.972C89.1338 85.5391 75.0288 26.7349 79.2903 13.9694Z" fill="url(#paint1_linear_171_581)"/>
<ellipse cx="94.8812" cy="51.4614" rx="19.0821" ry="48.5727" transform="rotate(-11.8847 94.8812 51.4614)" fill="url(#paint2_linear_171_581)"/>
<ellipse cx="95.9085" cy="52.1314" rx="14.7453" ry="45.9706" transform="rotate(-11.8847 95.9085 52.1314)" fill="#B2ADFF"/>
<path d="M10.3966 71.0143C15.9833 92.966 32.8392 93.5944 41.1644 91.0393C37.6241 88.7384 30.3376 79.0421 27.9653 68.5214C25.334 56.8523 27.9181 44.2048 30.4832 40.2866C21.0628 41.4661 4.80991 49.0626 10.3966 71.0143Z" fill="#4A63A6"/>
<path d="M98.1564 41.7542C93.2572 44.4038 77.935 44.3913 77.935 44.3913C77.935 44.3913 78.9 56.0578 83.5998 68.0175C87.583 64.1583 98.1889 61.8467 102.288 61.3868C98.2944 58.3605 98.4057 46.7366 98.1564 41.7542Z" fill="#324985"/>
<ellipse cx="101.18" cy="51.9084" rx="4.33685" ry="10.4084" transform="rotate(-11.8847 101.18 51.9084)" fill="url(#paint3_linear_171_581)"/>
<defs>
<linearGradient id="paint0_linear_171_581" x1="55.2198" y1="81.1207" x2="74.5592" y2="130.589" gradientUnits="userSpaceOnUse">
<stop stop-color="#132A60"/>
<stop offset="1" stop-color="#4A63A6"/>
</linearGradient>
<linearGradient id="paint1_linear_171_581" x1="36.566" y1="65.8085" x2="76.4861" y2="57.4071" gradientUnits="userSpaceOnUse">
<stop stop-color="#4A63A6"/>
<stop offset="1" stop-color="#2F4479"/>
</linearGradient>
<linearGradient id="paint2_linear_171_581" x1="75.799" y1="54.8502" x2="113.954" y2="52.9619" gradientUnits="userSpaceOnUse">
<stop stop-color="#4366C1"/>
<stop offset="1" stop-color="#2F4479"/>
</linearGradient>
<linearGradient id="paint3_linear_171_581" x1="105.519" y1="52.4562" x2="96.8458" y2="52.4562" gradientUnits="userSpaceOnUse">
<stop stop-color="#4761A7"/>
<stop offset="0.479167" stop-color="#4761A7"/>
</linearGradient>
</defs>
</svg>
