<svg width="123" height="145" viewBox="0 0 123 145" fill="none" xmlns="http://www.w3.org/2000/svg">
<path d="M26.5 145C34.5081 145 41 138.508 41 130.5C41 122.492 34.5081 116 26.5 116C18.4919 116 12 122.492 12 130.5C12 138.508 18.4919 145 26.5 145Z" fill="#F2F2F2"/>
<path d="M61.5002 142C47.2719 142 33.4837 137.027 22.485 127.927C11.4863 118.827 3.95768 106.164 1.18183 92.096C-1.59402 78.0276 0.554704 63.4241 7.26187 50.7738C13.969 38.1235 24.8197 28.2091 37.9649 22.7199C51.1102 17.2306 65.7367 16.5062 79.3524 20.6701C92.9681 24.8339 104.73 33.6283 112.635 45.5549C120.54 57.4815 124.098 71.8023 122.704 86.0773C121.309 100.352 115.048 113.698 104.987 123.841C99.2895 129.616 92.5124 134.195 85.0479 137.312C77.5834 140.429 69.5797 142.022 61.5002 142ZM61.5002 18.474C27.8481 18.474 0.469971 46.0745 0.469971 80.0004C0.469971 113.926 27.8481 141.527 61.5002 141.527C95.1524 141.527 122.53 113.926 122.53 80.0003C122.53 46.0745 95.1523 18.474 61.5002 18.474Z" fill="#2F2E41"/>
<path d="M94 99.0477L93.9931 99.0513L63.7205 116L30.5712 99.3349L30 99.0477L31.7204 64.4506L61.6559 43.0004L61.9863 43.208L92.9678 62.7208L94 99.0477Z" fill="#4962A4"/>
<path opacity="0.3" d="M94 99.2168L63.4515 116L30 99.4976L59.6319 79.0004L94 99.2168Z" fill="black"/>
<path opacity="0.1" d="M94 99.0004L60 78.8951L62.0469 44.0004L92.9697 63.2197L94 99.0004Z" fill="black"/>
<path d="M31.1676 76.0004L31 75.7579L61.1504 54.0004L93 74.4159L92.8458 74.6675L61.1597 54.3569L31.1676 76.0004Z" fill="#F2F2F2"/>
<path d="M30.164 87.0004L30 86.7557L60.1858 66.0004L60.2649 66.0458L93 84.8353L92.8557 85.0927L60.1997 66.3485L30.164 87.0004Z" fill="#F2F2F2"/>
<path d="M42.1554 106L42 105.749L72.7051 86.6374V50.0004H73V86.8024L42.1554 106Z" fill="#F2F2F2"/>
<path d="M54.1521 112L54 111.75L82.7136 93.1867V57.0004H83V93.3501L54.1521 112Z" fill="#F2F2F2"/>
<path d="M82.8589 106L49 86.8866L49.0048 86.7947L50.7872 51.0004L51.0772 51.0154L49.2993 86.7178L83 105.742L82.8589 106Z" fill="#F2F2F2"/>
<path d="M71.8636 112L38 94.0864L38.0053 93.9912L40.0015 58.0004L40.2948 58.017L38.304 93.9125L72 111.738L71.8636 112Z" fill="#F2F2F2"/>
<path d="M104 44.0004C113.941 44.0004 122 35.9415 122 26.0004C122 16.0592 113.941 8.00037 104 8.00037C94.0589 8.00037 86 16.0592 86 26.0004C86 35.9415 94.0589 44.0004 104 44.0004Z" fill="#3F3D56"/>
<path d="M97.396 12.3003L97.3531 12.2885L97.4036 12.7117C97.4261 13.2955 97.4954 13.8764 97.6107 14.4487L99.0908 26.8605C99.138 27.2566 99.2989 27.6299 99.5536 27.9346C99.8083 28.2393 100.146 28.4621 100.525 28.5756L106.757 30.4433C107.16 30.564 107.591 30.5555 107.989 30.4188C108.388 30.282 108.735 30.0239 108.982 29.6801L116.599 19.0984C116.832 18.8082 117.049 18.5061 117.251 18.1933L117.509 17.834L117.478 17.8253C118.329 16.3812 118.84 14.759 118.968 13.0852C119.097 11.4113 118.841 9.73103 118.221 8.17528C117.6 6.61953 116.631 5.23036 115.39 4.11607C114.149 3.00177 112.668 2.19244 111.064 1.75118C109.461 1.30992 107.777 1.24865 106.143 1.57214C104.51 1.89562 102.972 2.59513 101.649 3.61613C100.327 4.63713 99.2544 5.95204 98.5166 7.45836C97.7788 8.96468 97.3953 10.6217 97.396 12.3003L97.396 12.3003Z" fill="#FFC759"/>
<path d="M110.8 16.8443L105.205 27.4L105.423 27.5155L111.018 16.9598L110.8 16.8443Z" fill="#4962A4"/>
<path d="M104.292 14.9043L104.047 14.8816L102.946 26.7774L103.191 26.8002L104.292 14.9043Z" fill="#4962A4"/>
<path d="M105.892 36.6228L97.4648 34.2605C97.4022 34.2426 97.3493 34.2035 97.3176 34.1516C97.286 34.0997 97.2781 34.0394 97.2958 33.9838C97.3135 33.9281 97.3553 33.8817 97.4121 33.8546C97.4689 33.8276 97.536 33.8221 97.5988 33.8393L106.026 36.2016C106.057 36.2102 106.087 36.2242 106.112 36.2429C106.138 36.2615 106.159 36.2844 106.175 36.3102C106.191 36.336 106.201 36.3642 106.205 36.3932C106.209 36.4222 106.207 36.4514 106.198 36.4791C106.189 36.5069 106.174 36.5326 106.154 36.5549C106.134 36.5772 106.109 36.5955 106.08 36.6088C106.052 36.6222 106.02 36.6303 105.988 36.6327C105.956 36.6351 105.923 36.6317 105.892 36.6228Z" fill="#FFC759"/>
<path d="M106.114 35.0009L97.7223 32.4024C97.6911 32.393 97.6621 32.377 97.6369 32.3554C97.6117 32.3338 97.5908 32.307 97.5755 32.2766C97.5601 32.2462 97.5507 32.2128 97.5476 32.1782C97.5445 32.1436 97.5478 32.1086 97.5574 32.0751C97.5671 32.0417 97.5827 32.0105 97.6036 31.9833C97.6244 31.9562 97.65 31.9336 97.6789 31.9168C97.7077 31.9001 97.7393 31.8896 97.7718 31.8858C97.8043 31.8821 97.837 31.8853 97.8681 31.8951L106.26 34.4936C106.291 34.5031 106.32 34.519 106.346 34.5406C106.371 34.5622 106.392 34.589 106.407 34.6194C106.422 34.6498 106.432 34.6833 106.435 34.7179C106.438 34.7524 106.435 34.7875 106.425 34.8209C106.415 34.8543 106.4 34.8855 106.379 34.9127C106.358 34.9399 106.332 34.9625 106.304 34.9792C106.275 34.9959 106.243 35.0065 106.211 35.0102C106.178 35.0139 106.145 35.0108 106.114 35.0009Z" fill="#FFC759"/>
<path d="M106.708 33.1013L98.2782 30.7384C98.2156 30.7205 98.1626 30.6813 98.1309 30.6295C98.0993 30.5776 98.0914 30.5173 98.1091 30.4616C98.1268 30.406 98.1687 30.3595 98.2255 30.3325C98.2822 30.3054 98.3494 30.2999 98.4122 30.3171L106.842 32.6801C106.905 32.698 106.958 32.7371 106.989 32.789C107.021 32.8409 107.029 32.9012 107.011 32.9569C106.993 33.0125 106.951 33.059 106.895 33.086C106.838 33.1131 106.771 33.1186 106.708 33.1013L106.708 33.1013Z" fill="#FFC759"/>
<path d="M100.985 37.221C102.646 37.7114 104.266 37.2001 104.604 36.0789L98.5885 34.3029C98.2509 35.4241 99.3239 36.7306 100.985 37.221Z" fill="#FFC759"/>
<path d="M107.358 14.013C106.993 13.9072 106.723 13.5849 106.579 13.3741C106.532 13.305 106.487 13.2338 106.442 13.1624C106.277 12.9026 106.121 12.6571 105.878 12.507C105.341 12.1752 104.618 12.4367 103.983 12.7364L103.869 12.522C104.567 12.1924 105.368 11.9092 106.012 12.3069C106.305 12.4876 106.484 12.7689 106.656 13.0408C106.7 13.1101 106.744 13.1792 106.79 13.2462C106.939 13.4654 107.246 13.8295 107.632 13.8082C107.796 13.786 107.954 13.7322 108.095 13.6498C108.201 13.5944 108.312 13.5471 108.426 13.5083C108.657 13.4392 108.905 13.4368 109.139 13.5015C109.372 13.5661 109.582 13.6949 109.741 13.8716C109.797 13.938 109.849 14.0073 109.898 14.079C109.993 14.2157 110.083 14.3447 110.215 14.4052C110.41 14.495 110.641 14.4139 110.885 14.3284C111.136 14.2402 111.396 14.1488 111.668 14.2174C111.677 14.2196 111.686 14.222 111.694 14.2245C112.175 14.3639 112.331 14.9103 112.406 15.3125L112.159 15.3512C112.056 14.8045 111.88 14.5154 111.607 14.4484C111.412 14.3992 111.199 14.4739 110.974 14.5528C110.692 14.6519 110.4 14.7542 110.109 14.6203C109.913 14.5308 109.799 14.3675 109.689 14.2094C109.646 14.145 109.599 14.0828 109.549 14.0232C109.422 13.8845 109.256 13.7835 109.071 13.7324C108.886 13.6813 108.691 13.6823 108.508 13.7354C108.406 13.7705 108.307 13.8131 108.212 13.8627C108.041 13.9612 107.85 14.024 107.65 14.0468C107.552 14.0522 107.453 14.0408 107.358 14.013Z" fill="#4962A4"/>
<path d="M37.9376 133.434C36.689 133.884 35.2855 133.164 34.8021 131.825C34.3187 130.486 34.9379 129.034 36.1865 128.583C36.5212 128.465 36.8785 128.424 37.2311 128.464C37.5837 128.505 38.2012 128.809 38.5 129L36.1865 122.5L28.8566 124.849C28.7601 124.8 28.679 124.726 28.6219 124.634C28.5648 124.542 28.534 124.436 28.5326 124.328C28.5255 124.147 28.5882 123.97 28.708 123.833C29.1206 123.339 29.2842 122.736 29.0885 122.194C28.7547 121.27 27.5005 120.872 26.288 121.31C25.0754 121.748 24.3623 122.852 24.6973 123.779C24.8546 124.215 25.2165 124.533 25.6813 124.702C25.8591 124.765 26.044 124.807 26.2319 124.826L26.2469 124.837C26.3977 124.904 26.5211 125.02 26.597 125.166C26.6729 125.312 26.6967 125.479 26.6646 125.641L19.5527 128.208L21.9593 134.874C21.9059 134.957 21.8329 135.025 21.7468 135.073C21.6607 135.12 21.5642 135.146 21.4658 135.147C21.2845 135.155 21.1073 135.092 20.9711 134.973C20.4761 134.562 19.8718 134.401 19.3288 134.597C18.4014 134.931 18.0006 136.183 18.437 137.392C18.8735 138.601 19.9795 139.31 20.9093 138.974C21.3466 138.817 21.6659 138.455 21.8361 137.991C21.8996 137.813 21.9415 137.629 21.9609 137.441L21.9726 137.426C22.0365 137.285 22.144 137.168 22.2795 137.092C22.415 137.016 22.5713 136.985 22.7254 137.004L24 140.5L40.5 134.597L39.5 131.825C39.3918 132.162 39.0627 132.602 38.8171 132.858C38.5716 133.114 38.2707 133.311 37.9376 133.434Z" fill="#6D6C7C"/>
</svg>
