<svg width="131" height="153" viewBox="0 0 131 153" fill="none" xmlns="http://www.w3.org/2000/svg">
<path opacity="0.03" d="M128 51.9071C127.674 51.8816 127.337 51.8966 127.032 51.95C126.85 51.9828 126.653 51.9998 126.454 52C126.253 52 126.054 51.9824 125.87 51.9486C125.654 51.91 125.42 51.891 125.184 51.893C124.948 51.8949 124.715 51.9178 124.503 51.9599C124.382 51.9861 124.248 51.9998 124.111 52C123.557 52 123.096 51.7722 123 51.4722C123.11 51.4391 123.205 51.3978 123.278 51.3505C123.601 51.1368 124.104 51 124.665 51C125.226 51 125.727 51.1354 126.053 51.3462C126.15 51.4103 126.286 51.4631 126.448 51.4992C126.611 51.5353 126.793 51.5536 126.978 51.5524H126.993C127.429 51.5524 127.814 51.6967 128 51.9071Z" fill="black"/>
<path d="M19.0183 17.0493L14.8811 21.8373L28.8194 33.8811L32.9566 29.0931L19.0183 17.0493Z" fill="#3F3D56"/>
<path d="M108.619 102.675L104.482 107.463L116.837 118.139L120.974 113.351L108.619 102.675Z" fill="#3F3D56"/>
<path d="M131 66.9975V67.3686C130.991 68.3007 130.965 69.2285 130.919 70.1522C130.109 85.9591 123.234 100.86 111.705 111.801C100.175 122.742 84.8642 128.895 68.9088 128.999C52.9535 129.102 37.5623 123.149 25.8896 112.358C14.2169 101.567 7.14661 86.757 6.12766 70.9619C6.04261 69.6503 6.00009 68.3288 6.00009 66.9975C5.97766 54.1568 9.99517 41.6292 17.4924 31.1613C18.0919 30.3178 18.7155 29.4898 19.3632 28.6772C19.8096 28.1121 20.2688 27.5596 20.7322 27.0113C31.2828 14.6129 46.3119 6.81027 62.5954 5.27749C78.8788 3.74472 95.1193 8.60389 107.832 18.8125C108.585 19.4156 109.325 20.0398 110.048 20.6766C110.626 21.187 111.194 21.7085 111.753 22.2413C122.75 32.676 129.519 46.741 130.783 61.7846C130.928 63.5054 131 65.243 131 66.9975Z" fill="#DADADA"/>
<path d="M69.2709 137C31.0749 137 5.78279e-05 105.759 5.78279e-05 67.3588C-0.0225466 49.7898 6.58251 32.8658 18.4831 20L20.0171 21.4313C8.47615 33.9082 2.07077 50.3208 2.09284 67.3588C2.09284 104.599 32.2288 134.896 69.2709 134.896C78.2712 134.926 87.1844 133.124 95.4729 129.597C103.761 126.07 111.254 120.892 117.497 114.375L119 115.84C112.562 122.56 104.836 127.899 96.2893 131.536C87.7425 135.173 78.5516 137.031 69.2709 137Z" fill="#2F2E41"/>
<path d="M79 135H61V153H79V135Z" fill="#2F2E41"/>
<path d="M19.4749 28.669C19.5058 28.6818 19.5347 28.6988 19.5607 28.7197C19.8993 28.9943 19.4749 29.5225 19.5264 29.9577C19.5864 30.5155 20.3409 30.638 20.9111 30.6929C21.4813 30.7521 22.2016 31.2042 21.9315 31.7028C20.4996 32.1887 19.0505 31.7112 17.5885 31.1577C10.0286 41.645 5.97748 54.1959 6.00009 67.0605C6.00009 68.3957 6.04297 69.7197 6.12873 71.0324C6.2486 71.1186 6.37985 71.1882 6.51886 71.2394C6.94759 71.4 7.44491 71.3704 7.83934 71.5986C8.15231 71.7803 8.36239 72.1014 8.67536 72.2704C9.57139 72.7521 10.8147 71.8267 11.6507 72.4014C11.8668 72.5954 12.0715 72.8014 12.2638 73.0183C13.0355 73.6775 14.3045 73.2338 15.1963 73.7282C15.7708 74.0451 16.0666 74.6789 16.3753 75.2535C17.1427 76.6901 18.386 78.1014 20.028 78.2155C20.5459 78.192 21.0648 78.209 21.58 78.2662C22.0859 78.3803 22.5832 78.8155 22.5017 79.3183C22.3603 80.1845 22.7933 81.131 22.6775 81.9972C22.4674 83.5817 20.1909 84.2746 19.998 85.8591C19.9973 86.2079 19.9773 86.5563 19.938 86.9028C19.8351 87.3169 19.5178 87.6549 19.4063 88.069C19.192 88.8507 19.7622 89.6324 20.3838 90.1563C21.0098 90.6845 21.7557 91.1408 22.0987 91.876C22.4588 92.6577 22.2831 93.5662 22.3988 94.4155C22.6561 96.2704 24.2809 97.6436 25.9529 98.531C26.4888 98.7517 26.9645 99.0932 27.342 99.5282C27.7708 100.141 27.7279 100.948 27.8736 101.679C28.2252 103.466 29.7515 104.941 29.7943 106.762C29.8243 108.059 29.0955 109.234 28.6582 110.455C28.2084 111.735 28.0746 113.102 28.2681 114.444C30.7126 116.487 33.311 118.344 36.0408 120C36.1893 119.784 36.2982 119.543 36.3624 119.29C36.4142 119.01 36.3785 118.721 36.2598 118.461C36.1411 118.202 35.9451 117.984 35.6978 117.837C36.1586 117.665 36.5778 117.4 36.9283 117.059C37.1005 116.885 37.2142 116.662 37.2541 116.422C37.294 116.182 37.2581 115.935 37.1512 115.715C37.9058 115.808 38.8018 115.855 39.2991 115.284C39.6978 114.828 39.6721 114.144 39.5135 113.565C39.2958 113.002 39.1517 112.414 39.0848 111.815C40.833 111.899 42.5852 111.841 44.3238 111.642C44.0722 110.806 43.5001 110.1 42.7289 109.673C43.5178 109.542 44.2338 108.613 44.4824 107.865C44.6975 107.102 44.7093 106.297 44.5167 105.528C44.4571 105.331 44.4482 105.121 44.491 104.92C44.6178 104.652 44.8408 104.44 45.1169 104.324C46.4203 103.584 47.7236 102.846 49.0269 102.11C49.2594 101.994 49.471 101.841 49.6528 101.658C50.0601 101.18 50.0001 100.466 49.79 99.8789C49.5799 99.2915 49.2456 98.738 49.1641 98.1211C48.924 96.2746 50.9304 94.9479 51.6078 93.207C51.8381 92.5121 51.9624 91.7873 51.9765 91.0563C52.0322 90.2704 52.0365 89.362 51.4277 88.8591C50.8404 88.3732 49.9272 88.4831 49.3141 88.031C48.7525 87.6169 48.5596 86.8183 47.9465 86.4845C47.3892 86.1803 46.6946 86.3746 46.073 86.231C44.984 85.9817 44.2981 84.7436 43.1834 84.6296C42.5574 84.5619 41.8457 84.8662 41.3313 84.507C40.8768 84.1859 40.8597 83.5479 40.7739 83.007C40.6217 82.1646 40.2115 81.3883 39.5983 80.7825C38.9852 80.1767 38.1985 79.7704 37.3441 79.6183C36.6968 79.5169 35.9937 79.5549 35.4406 79.2042C34.8833 78.8493 34.6303 78.1859 34.1887 77.6915C33.4856 76.9014 32.3709 76.6183 31.3291 76.3774C29.9143 76.0521 28.501 75.7253 27.0891 75.3972C26.3388 75.2197 25.3699 75.1267 24.9626 75.7774C24.8421 76.0249 24.7583 76.2882 24.7139 76.5591C24.5608 77.0468 24.2554 77.4743 23.8412 77.7809C23.4271 78.0874 22.9253 78.2572 22.4074 78.2662C22.0529 77.6696 21.4786 77.2307 20.804 77.0408C20.3632 76.9679 19.9278 76.8663 19.5007 76.7366C19.2776 76.6289 19.0791 76.4774 18.9175 76.2915C18.7559 76.1057 18.6344 75.8892 18.5606 75.6554C18.4867 75.4217 18.462 75.1755 18.488 74.9321C18.514 74.6886 18.5902 74.4529 18.7118 74.2394C18.9549 73.8106 19.0484 73.315 18.9779 72.8287C18.9074 72.3424 18.6769 71.8924 18.3217 71.5479C17.6014 70.9098 16.5596 70.7535 15.5907 70.8169C15.3377 70.2718 15.7622 69.6591 16.2166 69.262C16.6754 68.869 17.2284 68.4803 17.327 67.8887C17.4856 66.9592 16.2809 66.2535 15.3678 66.5281C14.4546 66.807 13.8715 67.6817 13.4857 68.5436C13.2985 69.0523 13.0433 69.534 12.7268 69.976C12.5646 70.1947 12.3442 70.3649 12.09 70.4678C11.8358 70.5708 11.5576 70.6023 11.2863 70.5591C10.5317 70.369 10.2445 69.4859 10.0773 68.7422C9.80936 67.7483 9.67389 66.7242 9.67429 65.6957C9.68084 64.6572 10.0994 63.6624 10.8404 62.9239C12.088 61.7915 14.0087 61.9014 15.6936 62.0831C15.5131 61.8459 15.4266 61.5519 15.4503 61.2563C15.474 60.9607 15.6062 60.6838 15.8222 60.4775C16.0477 60.2801 16.3186 60.14 16.6115 60.0693C16.9044 59.9987 17.2103 59.9995 17.5028 60.0718C18.0108 60.1755 18.4685 60.4449 18.8018 60.8366C19.282 61.4113 19.4192 62.1929 19.7793 62.8436C20.1438 63.4986 20.9583 64.0563 21.6229 63.7056C22.2016 63.4014 22.2917 62.6155 22.1502 61.9859C22.0044 61.3605 21.7 60.7479 21.7515 60.1056C21.8501 58.8845 23.1405 58.1451 24.2767 57.6422C25.4128 57.1394 26.7118 56.4591 26.8919 55.2422C26.9002 55.0056 26.9465 54.7717 27.0291 54.5493C27.1548 54.3507 27.3306 54.1877 27.5393 54.076C30.8533 51.9169 34.2274 49.7281 38.0173 48.5493C38.2145 48.4859 38.236 48.5535 38.4374 48.507C38.7204 48.3465 38.5318 47.9028 38.2617 47.7253C37.9916 47.5478 37.6314 47.4084 37.5629 47.0957C37.5157 46.8676 37.6529 46.6394 37.6872 46.407C37.6961 46.2666 37.67 46.1263 37.6111 45.9981C37.5522 45.87 37.4624 45.7581 37.3494 45.6722C37.2364 45.5863 37.1037 45.529 36.9631 45.5053C36.8224 45.4817 36.678 45.4924 36.5425 45.5366C36.2381 45.1394 36.8383 44.6788 37.327 44.5436C38.7904 44.1486 40.2922 43.9078 41.8072 43.8253C41.9821 43.7969 42.1616 43.8266 42.3174 43.9098C42.4288 44.0158 42.4949 44.1597 42.502 44.3121C42.5092 44.4646 42.457 44.6139 42.356 44.7296C42.1497 44.9553 41.9214 45.1606 41.6743 45.3422C41.4284 45.5777 41.2527 45.8752 41.1665 46.2023C41.0803 46.5294 41.0869 46.8735 41.1856 47.1972C41.9787 47.5943 42.8362 48.0042 43.715 47.8648C44.5896 47.7253 45.3656 46.7535 44.954 45.9803C44.5725 45.2577 43.4192 45.0929 43.222 44.3028C42.9905 43.3774 44.3195 42.5535 44.0194 41.6493C43.8908 41.2521 43.4878 41.0155 43.1791 40.7324C42.8159 40.3799 42.5688 39.9277 42.4702 39.4347C42.3715 38.9418 42.4258 38.431 42.6261 37.969C42.1242 38.0554 41.6086 38.0223 41.1223 37.8723C40.6361 37.7224 40.1932 37.46 39.8308 37.107C39.162 36.4436 38.6303 35.3915 37.6786 35.4253C36.8083 35.4507 36.058 36.4521 35.2434 36.1479C35.0419 36.0718 34.8319 35.9197 34.6389 36.0084C34.5753 36.0487 34.5218 36.1028 34.4824 36.1665C34.4431 36.2302 34.4189 36.3018 34.4117 36.376C34.2059 37.3521 34.5618 38.4634 34.0216 39.3084C33.4342 40.2253 32.0752 40.3521 31.3635 41.1803C30.9776 41.6282 30.8276 42.2324 30.4717 42.7056C30.1159 43.1789 29.3656 43.4831 28.9369 43.069C29.1469 42.6448 29.2043 42.1629 29.1 41.7023C28.9956 41.2417 28.7355 40.8296 28.3624 40.5338C27.9675 40.2783 27.541 40.0739 27.0934 39.9253C26.5933 39.7173 26.1175 39.4567 25.6743 39.1479C25.4534 39.0153 25.2739 38.8252 25.1556 38.5986C25.0619 38.3136 25.074 38.0051 25.1898 37.7282C25.4069 37.1179 25.7886 36.5775 26.294 36.1651C26.7993 35.7526 27.4092 35.4837 28.058 35.3873C28.6239 35.3113 29.2841 35.3366 29.6614 34.9099C29.8586 34.6859 29.9615 34.3437 30.2531 34.2549C30.4367 34.2171 30.6279 34.2394 30.7976 34.3183C31.505 34.5634 32.208 34.8084 32.9154 35.0535C33.1513 35.1601 33.4119 35.2024 33.67 35.176C33.7979 35.1598 33.9148 35.0961 33.9968 34.998C34.0788 34.8999 34.1199 34.7747 34.1116 34.6479C34.043 34.3014 33.5028 34.1366 33.5543 33.7859C33.5792 33.6713 33.6408 33.5677 33.73 33.4901C34.4947 32.6886 35.4296 32.0634 36.468 31.6595C37.5063 31.2556 38.6224 31.0828 39.7365 31.1535C40.0023 31.5887 39.5821 32.1 39.2263 32.4676C38.8747 32.8394 38.5918 33.4986 39.0205 33.7817C39.1934 33.8711 39.3869 33.9148 39.5821 33.9084C40.1034 33.9774 40.6101 34.1286 41.0827 34.3563C41.8158 34.669 42.536 35.0155 43.2391 35.3873C43.1356 34.9343 43.1534 34.4625 43.2906 34.0183C43.3681 33.8002 43.5251 33.6184 43.7312 33.5083C43.9373 33.3982 44.1776 33.3676 44.4053 33.4225C44.8254 33.5831 45.0398 34.1324 45.4899 34.1831C46.0859 34.2507 46.3217 33.3803 46.073 32.8394C45.8244 32.2986 45.327 31.8507 45.2885 31.2549C45.2584 30.8577 45.4128 30.3634 45.0913 30.1225C44.9769 30.0479 44.846 30.0015 44.7097 29.9873C42.0173 29.5014 39.3235 29.0141 36.6282 28.5253C36.148 28.4366 35.4578 28.5042 35.4364 28.9817C35.4235 29.2521 35.6679 29.5183 35.5607 29.7634C35.4449 30.0253 35.0677 30.0042 34.7933 30.0972C34.5871 30.1893 34.417 30.3452 34.3087 30.5411C34.2004 30.737 34.1598 30.9624 34.1931 31.1831C34.2664 31.6225 34.4393 32.0399 34.699 32.4042C34.1716 32.1887 33.3785 32.1507 32.8512 31.931C32.7745 31.3292 32.6188 30.7398 32.3881 30.1775C32.3749 30.088 32.342 30.0024 32.2917 29.9268C32.2413 29.8512 32.1748 29.7874 32.0967 29.7399C32.0187 29.6923 31.931 29.6623 31.8399 29.6517C31.7487 29.6412 31.6564 29.6504 31.5693 29.6789C30.8747 29.7845 30.1802 29.8859 29.4857 29.9915C29.3113 29.9997 29.1443 30.0635 29.0098 30.1732C28.7397 30.4563 29.0055 30.9085 28.9969 31.2972C28.9718 31.5145 28.8786 31.7188 28.7304 31.8816C28.5821 32.0444 28.386 32.1576 28.1695 32.2056C27.7331 32.2929 27.2829 32.2872 26.849 32.1887C25.8758 32.0408 24.9069 31.893 23.9337 31.7451C24.7927 31.4753 25.5567 30.9713 26.1373 30.2915C26.5232 29.8437 26.729 29.007 26.1716 28.7958C26.007 28.7512 25.8353 28.7383 25.6657 28.7577C24.3452 28.7662 23.3035 27.6803 22.0687 27.2197C21.6805 27.077 21.2698 27.0026 20.8554 27L19.4749 28.669Z" fill="#34519B"/>
<path d="M130.919 70.5452C130.77 70.7441 130.573 70.9037 130.347 71.0099C130.121 71.1162 129.872 71.1658 129.622 71.1545C128.295 71.0411 127.735 69.1458 126.42 68.9315C126.304 68.902 126.181 68.9139 126.073 68.9651C125.878 69.0702 125.844 69.3307 125.831 69.5492C125.776 70.6334 125.729 71.7597 126.158 72.7598C126.781 74.2222 128.396 75.4493 128.057 77C126.234 76.1637 125.284 74.134 124.856 72.1883C124.423 70.2426 124.355 68.2003 123.584 66.3596C122.994 67.1034 121.764 66.4899 121.23 65.7083C120.721 64.9686 120.408 64.1113 119.916 63.3591C119.424 62.6111 118.669 61.9387 117.77 61.8967C116.824 61.8547 116.002 62.4976 115.281 63.107C114.654 63.566 114.127 64.1465 113.733 64.8131C113.229 65.8217 113.36 67.0068 113.335 68.1288C113.309 69.3391 113.051 70.6208 112.215 71.5117C111.38 72.3984 109.841 72.7094 108.92 71.9067C108.475 71.4471 108.158 70.8809 108 70.2636C107 67.3744 106.167 64.4307 105.507 61.4471C105.354 62.1278 104.748 63.0061 104.171 62.6069C104.042 62.4982 103.938 62.3636 103.866 62.2119C102.789 60.4091 100.8 59.3249 98.7859 58.6735C96.7759 58.0263 94.66 57.7238 92.6713 57.0093C91.556 56.608 90.4904 56.0821 89.4952 55.4419C89.2424 55.8109 89.0948 56.2407 89.0679 56.686C89.0411 57.1312 89.1359 57.5754 89.3426 57.9717C89.5661 58.3594 89.9126 58.6632 90.3282 58.8357C90.7438 59.0082 91.2052 59.0398 91.6409 58.9256C92.0818 58.7827 92.455 58.4802 92.8918 58.3289C93.3285 58.1818 93.9179 58.2533 94.1087 58.6735C94.2953 59.0727 94.0155 59.556 94.1554 59.9762C94.3632 60.6108 95.3342 60.6612 95.6734 61.2411C95.7731 61.4708 95.7961 61.726 95.7388 61.9695C95.6816 62.213 95.5472 62.4319 95.3554 62.5943C94.9652 62.9096 94.5346 63.1724 94.0748 63.3759C92.6501 64.1618 91.6366 65.5023 90.3899 66.5445C89.1433 67.5909 87.3835 68.3515 85.8994 67.6834C86.2513 65.9058 84.1184 64.603 83.7241 62.8338C83.5926 62.2497 83.6605 61.632 83.4781 61.0646C83.211 60.241 82.4732 59.6779 81.871 59.0559C81.1395 58.2924 80.5694 57.3915 80.1944 56.4064C79.8194 55.4213 79.6469 54.3718 79.6872 53.3197C79.7211 52.5885 79.8569 51.8447 79.6872 51.1302C79.5219 50.42 78.924 49.7309 78.1861 49.7603C76.5027 49.8359 74.3783 49.962 73.4963 48.5374C73.1783 48.0289 73.0426 47.2851 73.5005 46.8943C73.6795 46.7818 73.8793 46.7057 74.0882 46.6704C74.2971 46.635 74.511 46.6411 74.7175 46.6884C75.9854 46.8102 77.249 46.9363 78.5169 47.0582C79.4031 47.1422 80.3615 47.2136 81.1247 46.7556C81.888 46.2975 82.2187 45.0746 81.5106 44.5325C80.9975 44.1375 80.0731 44.1585 79.9204 43.5324C79.7975 43.0071 80.3826 42.4145 80.0646 41.9733C79.8399 41.6623 79.331 41.7464 79.0215 41.9817C78.7514 42.2596 78.4577 42.5141 78.1437 42.7423C77.5374 43.0533 76.8165 42.7549 76.1635 42.5532C75.5105 42.3515 74.6369 42.3347 74.3231 42.9356C73.967 43.6038 74.6327 44.4863 74.285 45.1587C73.8185 46.0454 72.2496 45.5411 71.5966 46.3059C70.8503 47.18 72.1054 48.4912 71.8553 49.609C71.5332 49.7673 71.1751 49.8401 70.8161 49.8202C70.4571 49.8003 70.1095 49.6884 69.8072 49.4955C69.5104 49.2955 69.2741 49.0195 69.1232 48.6968C68.9724 48.3741 68.9127 48.0169 68.9506 47.6633C69.01 47.159 69.2771 46.6421 69.099 46.1673C68.907 45.8005 68.5899 45.5132 68.2043 45.3562C66.9746 44.6796 65.7449 44.0058 64.5152 43.3349C64.1717 43.9652 64.6042 44.7426 65.147 45.2175C65.6855 45.6882 66.364 46.0454 66.7202 46.6673C66.9457 47.0984 66.9967 47.5985 66.8627 48.0655C66.7287 48.5326 66.4199 48.9313 65.9993 49.1803C65.946 49.2166 65.8855 49.241 65.8218 49.2519C65.7581 49.2628 65.6928 49.2599 65.6304 49.2434C65.5716 49.2092 65.5203 49.1637 65.4795 49.1095C65.4387 49.0554 65.4093 48.9938 65.3929 48.9282C64.7441 47.2767 63.7646 45.6503 62.2042 44.7889C60.6395 43.9232 58.3963 44.1039 57.3701 45.5537C57.1284 45.8983 56.9631 46.2933 56.751 46.6589C55.6273 48.5962 53.2103 49.5123 50.9544 49.4535C50.7338 49.4675 50.5139 49.4163 50.3226 49.3064C49.958 49.0584 49.9749 48.5289 50.03 48.0919C50.1106 47.4742 50.1869 46.8606 50.2675 46.2429C50.2695 45.8657 50.4166 45.5034 50.6788 45.2301C51.0986 44.9023 51.7008 45.1082 52.235 45.0998C52.6383 45.082 53.0261 44.9413 53.3456 44.6968C53.6652 44.4524 53.9007 44.1161 54.0202 43.734C54.1277 43.3485 54.1268 42.9411 54.0177 42.556C53.9086 42.1709 53.6954 41.8226 53.4011 41.5488C53.1594 41.3219 52.8329 41.0361 52.9601 40.7294C53.0118 40.6449 53.0815 40.5725 53.1642 40.5174C53.247 40.4622 53.3408 40.4256 53.4393 40.41C54.3934 40.1368 55.4068 40.0654 56.3439 39.7376C57.2853 39.414 58.197 38.7501 58.4217 37.7877C58.4896 37.4936 58.5193 37.1363 58.7864 36.9893C58.9213 36.9356 59.0651 36.9071 59.2105 36.9052C59.7203 36.8328 60.1844 36.5741 60.5116 36.1798C60.8388 35.7856 61.0054 35.2844 60.9787 34.7746C61.4282 34.4637 62.06 34.6948 62.4967 35.0268C62.9293 35.3588 63.3152 35.7958 63.8452 35.9387C64.8332 36.2076 65.7873 35.3377 66.8135 35.3335C67.246 35.3335 67.6912 35.4848 68.094 35.3378C68.5054 35.1907 68.7513 34.7872 69.0651 34.4889C69.3831 34.1863 69.9344 34.0056 70.2269 34.3292C70.1421 33.7198 70.0616 33.1147 69.9768 32.5096C70.4763 32.6342 70.9971 32.6515 71.5039 32.5602C72.0108 32.4688 72.4921 32.271 72.9154 31.9801C71.8468 31.6229 70.7825 31.2657 69.7139 30.9085C69.6016 30.881 69.4981 30.8261 69.4128 30.7488C69.1796 30.5008 69.4128 30.1142 69.5994 29.8327C70.0531 29.1561 70.1294 28.0424 69.3831 27.7063C68.8743 27.4751 68.2933 27.7525 67.8057 28.0214C67.0255 28.4501 66.2453 28.8829 65.465 29.3116C65.3929 29.7528 65.9357 30.005 66.2707 30.2991C66.4748 30.4786 66.6193 30.7151 66.6852 30.9775C66.7511 31.2399 66.7353 31.516 66.6398 31.7693C66.5444 32.0226 66.3738 32.2414 66.1504 32.3968C65.9271 32.5522 65.6616 32.6369 65.3887 32.6398C65.5424 32.8386 65.6492 33.069 65.7013 33.3141C65.7534 33.5591 65.7494 33.8127 65.6898 34.056C65.1682 34.0938 64.6424 34.1317 64.1166 34.1695C64.0292 34.1867 63.9393 34.1867 63.852 34.1694C63.7647 34.1521 63.6817 34.1178 63.6077 34.0686C63.4381 33.9215 63.4636 33.661 63.4212 33.4425C63.3513 33.1813 63.2041 32.9468 62.9985 32.7693C62.7929 32.5918 62.5384 32.4794 62.2678 32.4465C61.7276 32.3863 61.1806 32.4364 60.6607 32.5936C60.4346 32.6725 60.1872 32.6666 59.9653 32.5768C59.8394 32.4942 59.7441 32.3733 59.6939 32.2322C59.6016 31.944 59.5859 31.6371 59.6483 31.3412C59.7107 31.0452 59.8491 30.7703 60.0501 30.5428C60.4573 30.0947 60.9059 29.6853 61.39 29.32C62.4872 28.368 63.2937 27.1306 63.718 25.748C64.583 25.3865 65.4778 24.8991 66.347 24.5377C67.0459 24.2167 67.7782 23.9729 68.5308 23.8107C69.2392 23.7035 69.9568 23.6697 70.6722 23.7098C71.6475 23.7266 72.627 23.7434 73.6023 23.7644C74.4729 23.7282 75.3427 23.8521 76.1677 24.13C76.9692 24.4578 77.6773 25.168 77.7324 26.0253C77.7491 26.123 77.7403 26.2233 77.7069 26.3167C77.6736 26.4101 77.6167 26.4935 77.5416 26.559C77.429 26.6207 77.3012 26.6498 77.1727 26.6431C76.3628 26.6683 76.0193 26.87 75.2094 26.8994C75.7225 27.4415 76.2992 28.013 77.0455 28.1097C78.36 28.2778 79.3056 26.9288 79.912 25.7564C79.9337 26.0548 80.0722 26.333 80.2979 26.5316C80.5237 26.7303 80.8189 26.8336 81.1205 26.8195C81.4454 26.7642 81.7555 26.6441 82.0322 26.4665C84.6403 25.0539 87.5619 24.3059 90.5341 24.2897C90.5049 24.0667 90.5604 23.8409 90.6896 23.6561C90.8189 23.4713 91.0128 23.3407 91.2338 23.2896C91.8402 23.1719 92.3829 23.6888 92.6755 24.2267C92.9639 24.7646 93.1462 25.3865 93.6126 25.79C94.0748 26.1934 94.9696 26.1724 95.1519 25.5925C95.33 25.0335 94.7406 24.5545 94.2529 24.2225C93.761 23.8947 93.248 23.2854 93.5787 22.7979C96.0721 22.2474 98.5866 21.7011 101.144 21.5918C101.578 21.6049 102.011 21.5305 102.416 21.3733C102.616 21.2892 102.783 21.1418 102.89 20.9542C102.998 20.7665 103.039 20.549 103.009 20.3353C102.451 20.4644 101.867 20.4262 101.331 20.2257C100.795 20.0252 100.331 19.6713 99.9986 19.2091C102.623 18.9948 105.371 18.8056 107.894 19.3898L110.103 21.2472C109.684 21.6801 109.124 22.0877 109.429 22.5205C109.53 22.62 109.652 22.6954 109.787 22.7413C109.921 22.7871 110.064 22.8022 110.205 22.7853C110.74 22.7937 111.274 22.8063 111.804 22.8063C122.772 33.2035 129.523 47.218 130.784 62.2076C129.893 62.174 129.075 63.2919 129.189 64.2668C129.325 65.3972 130.148 66.305 130.737 67.2799C130.835 67.4384 130.922 67.6026 131 67.7716L130.919 70.5452Z" fill="#34519B"/>
<path d="M101 45C104.314 45 107 42.5376 107 39.5C107 36.4624 104.314 34 101 34C97.6863 34 95 36.4624 95 39.5C95 42.5376 97.6863 45 101 45Z" fill="#DADADA"/>
<path d="M106 23C110.418 23 114 19.6421 114 15.5C114 11.3579 110.418 8 106 8C101.582 8 98 11.3579 98 15.5C98 19.6421 101.582 23 106 23Z" fill="white"/>
<path d="M108.015 4.38175C105.179 3.89023 102.246 4.54191 99.8623 6.19342C97.4784 7.84494 95.8385 10.361 95.3033 13.1881C94.1887 19.0753 101.223 40.2606 101.223 40.2606C101.223 40.2606 115.576 22.7819 116.691 16.8947C117.226 14.0676 116.613 11.161 114.986 8.81438C113.359 6.46774 110.851 4.87328 108.015 4.38175ZM105.013 20.2413C104.032 20.0714 103.129 19.6156 102.417 18.9316C101.705 18.2476 101.216 17.366 101.011 16.3983C100.807 15.4307 100.897 14.4204 101.27 13.4953C101.642 12.5702 102.281 11.7718 103.105 11.2011C103.929 10.6304 104.901 10.3129 105.898 10.2889C106.896 10.2649 107.873 10.5354 108.708 11.0662C109.543 11.597 110.197 12.3643 110.588 13.2711C110.979 14.1778 111.088 15.1832 110.903 16.1603C110.655 17.4704 109.895 18.6364 108.791 19.4017C107.686 20.167 106.327 20.469 105.013 20.2413Z" fill="#FFC759"/>
</svg>
