<svg width="144" height="135" viewBox="0 0 144 135" fill="none" xmlns="http://www.w3.org/2000/svg">
<path d="M90.9217 125.769L53.03 133.526L52.1665 133.443L18.8676 130.079V87.8437L59.6304 80.9457L89.2001 84.3974L89.2111 84.5846V84.6727L90.9217 125.769Z" fill="#4962A4"/>
<path opacity="0.2" d="M53.1137 133.562L23.2394 129.919H18.8676V88.817L53.1137 90.5723V133.562Z" fill="black"/>
<path opacity="0.1" d="M88.9743 84.8906L88.9634 84.9023L52.0544 90.6827L18.8676 88.247L59.4932 80.9457L88.9634 84.5993L88.9743 84.7974V84.8906Z" fill="black"/>
<path d="M83.5597 31.8832C82.5966 32.0735 80.951 32.1015 79.0608 32.0388C73.9212 31.8691 66.9682 31.0374 66.9682 31.0374C66.9682 31.0374 30.9548 28.5579 5.89421 13.8633C5.89421 13.8633 2.31308 11.3005 6.31204 9.17777C6.926 8.86303 7.56766 8.60188 8.22957 8.39733L8.27997 8.36115C8.74464 8.05451 9.23686 7.78922 9.75075 7.56845C11.263 6.90676 13.7508 6.227 16.5202 7.1212L84.9019 28.6829C84.9019 28.6829 87.1436 31.1718 83.5597 31.8832Z" fill="#3F3D56"/>
<path d="M69.6248 24.792L86.1738 16.1855L92.5729 18.3402L84.4096 28.8466C84.4096 28.8466 69.5085 26.7299 69.6248 24.792Z" fill="#3F3D56"/>
<path d="M33.95 12.7165L64.5609 9.05664L69.1529 10.7402L54.9937 14.5983L50.1593 18.5256L33.95 12.7165Z" fill="#3F3D56"/>
<path d="M77.9747 31.6358C72.787 32.281 66.2293 31.5523 66.2293 31.5523C66.2293 31.5523 29.8398 28.9749 5.35898 13.9333C5.35898 13.9333 2.10893 11.1504 6.48076 8.96456C8.29448 14.5428 35.0335 19.8127 38.2593 20.7075L77.9747 31.6358Z" fill="#98CDFF"/>
<path d="M74.0243 30.3531L86.2287 38.1717L89.5758 38.2668L82.7184 30.648C82.7184 30.648 73.5846 27.0122 74.0243 30.3531Z" fill="#3F3D56"/>
<path d="M11.0739 10.0611C10.5374 9.99004 9.45565 8.84733 8.79031 8.08749C9.19403 7.7934 9.62096 7.53787 10.066 7.32394C10.6048 7.91999 11.5756 8.89948 12.1885 8.95921C13.0724 9.05268 11.882 10.1668 11.0739 10.0611Z" fill="#98CDFF"/>
<path d="M65.9985 48.9013L57.3887 48.0546L35.7566 28.5566L31.7411 24.9364L29.7909 23.1775C34.3607 20.4234 50.2421 27.5587 50.2421 27.5587C50.52 27.8691 50.5554 28.3209 50.4686 28.8011C50.3051 29.7 49.7129 30.695 49.4887 31.0513C49.4346 31.1388 49.4023 31.1846 49.4023 31.1846L65.9985 48.9013Z" fill="#3F3D56"/>
<path d="M87.2768 122.694C93.8969 122.694 99.2635 117.32 99.2635 110.691C99.2635 104.061 93.8969 98.6875 87.2768 98.6875C80.6568 98.6875 75.2902 104.061 75.2902 110.691C75.2902 117.32 80.6568 122.694 87.2768 122.694Z" fill="#3F3D56"/>
<path d="M89.4563 116.01C92.3901 116.01 94.7685 113.629 94.7685 110.691C94.7685 107.753 92.3901 105.371 89.4563 105.371C86.5224 105.371 84.144 107.753 84.144 110.691C84.144 113.629 86.5224 116.01 89.4563 116.01Z" fill="#E6E6E6"/>
<path d="M107.59 29.0669L107.276 30.8119L130.767 35.0605L131.082 33.3156L107.59 29.0669Z" fill="#3F3D56"/>
<path d="M103.203 43.5787L102.849 45.316L126.173 50.0828L126.527 48.3455L103.203 43.5787Z" fill="#3F3D56"/>
<path d="M95.3911 69.5321L94.904 71.2368L117.675 77.7615L118.163 76.0568L95.3911 69.5321Z" fill="#3F3D56"/>
<path d="M79.717 119.079L105.87 129.991L105.053 132.583L90.001 130.878L64.5293 119.557L78.6953 121.193L79.717 119.079Z" fill="#3F3D56"/>
<path d="M102.835 129.5L135.361 22.6547L143.282 8.56873L143.31 8.43279C143.336 8.30851 143.917 5.36427 142.487 3.23209C142.126 2.70209 141.66 2.25214 141.118 1.91031C140.576 1.56847 139.97 1.34209 139.337 1.24524C134.965 0.424448 125.185 0.020041 124.771 0.00319258L124.693 0L124.616 0.0105859C124.348 0.0470843 118.098 0.961985 116.685 6.42743L109.885 18.8204L109.858 18.9086L79.0744 120.253L80.7685 120.769L111.526 19.5128L118.349 7.07805L118.376 6.96376C119.375 2.85093 124.152 1.88873 124.787 1.77864C125.786 1.82133 134.978 2.23094 139.01 2.98806C139.411 3.04273 139.796 3.18001 140.14 3.39124C140.485 3.60246 140.782 3.88303 141.013 4.21519C141.895 5.52244 141.674 7.44716 141.596 7.95313L133.724 21.9529L133.696 22.0452L101.141 128.982L102.835 129.5Z" fill="#3F3D56"/>
<path d="M110.791 119.837L111.437 118.185L89.3342 109.519L88.2487 97.7508L108.878 105.467L115.561 115.15L117.019 114.142L110.019 104L86.2262 95.1011L87.6714 110.771L110.791 119.837Z" fill="#3F3D56"/>
<path d="M118.469 134.151C125.089 134.151 130.456 128.777 130.456 122.148C130.456 115.519 125.089 110.145 118.469 110.145C111.849 110.145 106.483 115.519 106.483 122.148C106.483 128.777 111.849 134.151 118.469 134.151Z" fill="#3F3D56"/>
<path d="M121.602 128.013C124.536 128.013 126.915 125.632 126.915 122.694C126.915 119.756 124.536 117.374 121.602 117.374C118.668 117.374 116.29 119.756 116.29 122.694C116.29 125.632 118.668 128.013 121.602 128.013Z" fill="#E6E6E6"/>
</svg>
